<?xml version="1.0" encoding="UTF-8" standalone="no"?>
<svg
   xmlns:dc="http://purl.org/dc/elements/1.1/"
   xmlns:cc="http://creativecommons.org/ns#"
   xmlns:rdf="http://www.w3.org/1999/02/22-rdf-syntax-ns#"
   xmlns:svg="http://www.w3.org/2000/svg"
   xmlns="http://www.w3.org/2000/svg"
   xmlns:sodipodi="http://sodipodi.sourceforge.net/DTD/sodipodi-0.dtd"
   xmlns:inkscape="http://www.inkscape.org/namespaces/inkscape"
   inkscape:version="1.0 (4035a4fb49, 2020-05-01)"
   sodipodi:docname="roofline-emf.svg"
   viewBox="0 0 614.66669 460"
   height="460"
   width="614.66669"
   xml:space="preserve"
   id="svg833"
   version="1.1"><metadata
     id="metadata839"><rdf:RDF><cc:Work
         rdf:about=""><dc:format>image/svg+xml</dc:format><dc:type
           rdf:resource="http://purl.org/dc/dcmitype/StillImage" /><dc:title></dc:title></cc:Work></rdf:RDF></metadata><defs
     id="defs837"><clipPath
       id="clipPath851"
       clipPathUnits="userSpaceOnUse"><path
         id="path849"
         d="M 6,2 V 3450 H 4610 V 2 Z" /></clipPath><clipPath
       id="clipPath1107"
       clipPathUnits="userSpaceOnUse"><path
         id="path1105"
         d="m 582,382.199 h 3571 v 2661 H 582 Z" /></clipPath><clipPath
       id="clipPath1417"
       clipPathUnits="userSpaceOnUse"><path
         id="path1415"
         d="M 6,2 V 3450 H 4610 V 2 Z" /></clipPath></defs><sodipodi:namedview
     inkscape:current-layer="g841"
     inkscape:window-maximized="1"
     inkscape:window-y="-8"
     inkscape:window-x="-8"
     inkscape:cy="230"
     inkscape:cx="307.33334"
     inkscape:zoom="1.1225596"
     showgrid="false"
     id="namedview835"
     inkscape:window-height="1017"
     inkscape:window-width="1920"
     inkscape:pageshadow="2"
     inkscape:pageopacity="0"
     guidetolerance="10"
     gridtolerance="10"
     objecttolerance="10"
     borderopacity="1"
     bordercolor="#666666"
     pagecolor="#ffffff" /><g
     transform="matrix(1.3333333,0,0,-1.3333333,0,460)"
     inkscape:label="roofline-eps-converted-to"
     inkscape:groupmode="layer"
     id="g841"><g
       transform="scale(0.1)"
       id="g843"><g
         id="g845"><g
           clip-path="url(#clipPath851)"
           id="g847"><path
             id="path853"
             style="fill:#ffffff;fill-opacity:1;fill-rule:nonzero;stroke:none"
             d="M 6,2 H 4614 V 3458 H 6 Z" /><path
             id="path855"
             style="fill:#ffffff;fill-opacity:1;fill-rule:nonzero;stroke:none"
             d="M 582,382.16 H 4153.2 V 3043.28 H 582 Z" /><path
             id="path857"
             style="fill:#000000;fill-opacity:1;fill-rule:nonzero;stroke:none"
             d="m 744.328,382.16 v -35" /><path
             id="path859"
             style="fill:none;stroke:#000000;stroke-width:8;stroke-linecap:butt;stroke-linejoin:round;stroke-miterlimit:10;stroke-dasharray:none;stroke-opacity:1"
             d="m 744.328,382.16 v -35" /><g
             transform="scale(10)"
             id="g861"><text
               id="text865"
               style="font-variant:normal;font-weight:normal;font-size:10px;font-family:Arial;-inkscape-font-specification:Arial;writing-mode:lr-tb;fill:#000000;fill-opacity:1;fill-rule:nonzero;stroke:none"
               transform="matrix(1,0,0,-1,65.4328,23.2707)"><tspan
                 id="tspan863"
                 sodipodi:role="line"
                 y="0"
                 x="0 6.362112">10</tspan></text><text
               id="text869"
               style="font-variant:normal;font-weight:normal;font-size:7px;font-family:Arial;-inkscape-font-specification:Arial;writing-mode:lr-tb;fill:#000000;fill-opacity:1;fill-rule:nonzero;stroke:none"
               transform="matrix(1,0,0,-1,78.2531,27.09883)"><tspan
                 id="tspan867"
                 y="0"
                 x="0">0</tspan></text></g><path
             id="path871"
             style="fill:#000000;fill-opacity:1;fill-rule:nonzero;stroke:none"
             d="m 1803.39,382.16 v -35" /><path
             id="path873"
             style="fill:none;stroke:#000000;stroke-width:8;stroke-linecap:butt;stroke-linejoin:round;stroke-miterlimit:10;stroke-dasharray:none;stroke-opacity:1"
             d="m 1803.39,382.16 v -35" /><g
             transform="scale(10)"
             id="g875"><text
               id="text879"
               style="font-variant:normal;font-weight:normal;font-size:10px;font-family:Arial;-inkscape-font-specification:Arial;writing-mode:lr-tb;fill:#000000;fill-opacity:1;fill-rule:nonzero;stroke:none"
               transform="matrix(1,0,0,-1,171.339,23.3582)"><tspan
                 id="tspan877"
                 sodipodi:role="line"
                 y="0"
                 x="0 6.3625026">10</tspan></text><text
               id="text883"
               style="font-variant:normal;font-weight:normal;font-size:7px;font-family:Arial;-inkscape-font-specification:Arial;writing-mode:lr-tb;fill:#000000;fill-opacity:1;fill-rule:nonzero;stroke:none"
               transform="matrix(1,0,0,-1,184.1593,27.18633)"><tspan
                 id="tspan881"
                 y="0"
                 x="0">1</tspan></text></g><path
             id="path885"
             style="fill:#000000;fill-opacity:1;fill-rule:nonzero;stroke:none"
             d="m 2862.45,382.16 v -35" /><path
             id="path887"
             style="fill:none;stroke:#000000;stroke-width:8;stroke-linecap:butt;stroke-linejoin:round;stroke-miterlimit:10;stroke-dasharray:none;stroke-opacity:1"
             d="m 2862.45,382.16 v -35" /><g
             transform="scale(10)"
             id="g889"><text
               id="text893"
               style="font-variant:normal;font-weight:normal;font-size:10px;font-family:Arial;-inkscape-font-specification:Arial;writing-mode:lr-tb;fill:#000000;fill-opacity:1;fill-rule:nonzero;stroke:none"
               transform="matrix(1,0,0,-1,277.245,23.2707)"><tspan
                 id="tspan891"
                 sodipodi:role="line"
                 y="0"
                 x="0 6.3624902">10</tspan></text><text
               id="text897"
               style="font-variant:normal;font-weight:normal;font-size:7px;font-family:Arial;-inkscape-font-specification:Arial;writing-mode:lr-tb;fill:#000000;fill-opacity:1;fill-rule:nonzero;stroke:none"
               transform="matrix(1,0,0,-1,290.0653,27.09883)"><tspan
                 id="tspan895"
                 y="0"
                 x="0">2</tspan></text></g><path
             id="path899"
             style="fill:#000000;fill-opacity:1;fill-rule:nonzero;stroke:none"
             d="m 3921.52,382.16 v -35" /><path
             id="path901"
             style="fill:none;stroke:#000000;stroke-width:8;stroke-linecap:butt;stroke-linejoin:round;stroke-miterlimit:10;stroke-dasharray:none;stroke-opacity:1"
             d="m 3921.52,382.16 v -35" /><g
             transform="scale(10)"
             id="g903"><text
               id="text907"
               style="font-variant:normal;font-weight:normal;font-size:10px;font-family:Arial;-inkscape-font-specification:Arial;writing-mode:lr-tb;fill:#000000;fill-opacity:1;fill-rule:nonzero;stroke:none"
               transform="matrix(1,0,0,-1,383.152,23.2707)"><tspan
                 id="tspan905"
                 sodipodi:role="line"
                 y="0"
                 x="0 6.3620996">10</tspan></text><text
               id="text911"
               style="font-variant:normal;font-weight:normal;font-size:7px;font-family:Arial;-inkscape-font-specification:Arial;writing-mode:lr-tb;fill:#000000;fill-opacity:1;fill-rule:nonzero;stroke:none"
               transform="matrix(1,0,0,-1,395.9723,27.09883)"><tspan
                 id="tspan909"
                 y="0"
                 x="0">3</tspan></text></g><path
             id="path913"
             style="fill:#000000;fill-opacity:1;fill-rule:nonzero;stroke:none"
             d="m 580.277,382.16 v -20" /><path
             id="path915"
             style="fill:none;stroke:#000000;stroke-width:6;stroke-linecap:butt;stroke-linejoin:round;stroke-miterlimit:10;stroke-dasharray:none;stroke-opacity:1"
             d="m 580.277,382.16 v -20" /><path
             id="path917"
             style="fill:#000000;fill-opacity:1;fill-rule:nonzero;stroke:none"
             d="m 641.691,382.16 v -20" /><path
             id="path919"
             style="fill:none;stroke:#000000;stroke-width:6;stroke-linecap:butt;stroke-linejoin:round;stroke-miterlimit:10;stroke-dasharray:none;stroke-opacity:1"
             d="m 641.691,382.16 v -20" /><path
             id="path921"
             style="fill:#000000;fill-opacity:1;fill-rule:nonzero;stroke:none"
             d="m 695.867,382.16 v -20" /><path
             id="path923"
             style="fill:none;stroke:#000000;stroke-width:6;stroke-linecap:butt;stroke-linejoin:round;stroke-miterlimit:10;stroke-dasharray:none;stroke-opacity:1"
             d="m 695.867,382.16 v -20" /><path
             id="path925"
             style="fill:#000000;fill-opacity:1;fill-rule:nonzero;stroke:none"
             d="m 1063.14,382.16 v -20" /><path
             id="path927"
             style="fill:none;stroke:#000000;stroke-width:6;stroke-linecap:butt;stroke-linejoin:round;stroke-miterlimit:10;stroke-dasharray:none;stroke-opacity:1"
             d="m 1063.14,382.16 v -20" /><path
             id="path929"
             style="fill:#000000;fill-opacity:1;fill-rule:nonzero;stroke:none"
             d="m 1249.63,382.16 v -20" /><path
             id="path931"
             style="fill:none;stroke:#000000;stroke-width:6;stroke-linecap:butt;stroke-linejoin:round;stroke-miterlimit:10;stroke-dasharray:none;stroke-opacity:1"
             d="m 1249.63,382.16 v -20" /><path
             id="path933"
             style="fill:#000000;fill-opacity:1;fill-rule:nonzero;stroke:none"
             d="m 1381.95,382.16 v -20" /><path
             id="path935"
             style="fill:none;stroke:#000000;stroke-width:6;stroke-linecap:butt;stroke-linejoin:round;stroke-miterlimit:10;stroke-dasharray:none;stroke-opacity:1"
             d="m 1381.95,382.16 v -20" /><path
             id="path937"
             style="fill:#000000;fill-opacity:1;fill-rule:nonzero;stroke:none"
             d="m 1484.58,382.16 v -20" /><path
             id="path939"
             style="fill:none;stroke:#000000;stroke-width:6;stroke-linecap:butt;stroke-linejoin:round;stroke-miterlimit:10;stroke-dasharray:none;stroke-opacity:1"
             d="m 1484.58,382.16 v -20" /><path
             id="path941"
             style="fill:#000000;fill-opacity:1;fill-rule:nonzero;stroke:none"
             d="m 1568.44,382.16 v -20" /><path
             id="path943"
             style="fill:none;stroke:#000000;stroke-width:6;stroke-linecap:butt;stroke-linejoin:round;stroke-miterlimit:10;stroke-dasharray:none;stroke-opacity:1"
             d="m 1568.44,382.16 v -20" /><path
             id="path945"
             style="fill:#000000;fill-opacity:1;fill-rule:nonzero;stroke:none"
             d="m 1639.34,382.16 v -20" /><path
             id="path947"
             style="fill:none;stroke:#000000;stroke-width:6;stroke-linecap:butt;stroke-linejoin:round;stroke-miterlimit:10;stroke-dasharray:none;stroke-opacity:1"
             d="m 1639.34,382.16 v -20" /><path
             id="path949"
             style="fill:#000000;fill-opacity:1;fill-rule:nonzero;stroke:none"
             d="m 1700.76,382.16 v -20" /><path
             id="path951"
             style="fill:none;stroke:#000000;stroke-width:6;stroke-linecap:butt;stroke-linejoin:round;stroke-miterlimit:10;stroke-dasharray:none;stroke-opacity:1"
             d="m 1700.76,382.16 v -20" /><path
             id="path953"
             style="fill:#000000;fill-opacity:1;fill-rule:nonzero;stroke:none"
             d="m 1754.93,382.16 v -20" /><path
             id="path955"
             style="fill:none;stroke:#000000;stroke-width:6;stroke-linecap:butt;stroke-linejoin:round;stroke-miterlimit:10;stroke-dasharray:none;stroke-opacity:1"
             d="m 1754.93,382.16 v -20" /><path
             id="path957"
             style="fill:#000000;fill-opacity:1;fill-rule:nonzero;stroke:none"
             d="m 2122.2,382.16 v -20" /><path
             id="path959"
             style="fill:none;stroke:#000000;stroke-width:6;stroke-linecap:butt;stroke-linejoin:round;stroke-miterlimit:10;stroke-dasharray:none;stroke-opacity:1"
             d="m 2122.2,382.16 v -20" /><path
             id="path961"
             style="fill:#000000;fill-opacity:1;fill-rule:nonzero;stroke:none"
             d="m 2308.69,382.16 v -20" /><path
             id="path963"
             style="fill:none;stroke:#000000;stroke-width:6;stroke-linecap:butt;stroke-linejoin:round;stroke-miterlimit:10;stroke-dasharray:none;stroke-opacity:1"
             d="m 2308.69,382.16 v -20" /><path
             id="path965"
             style="fill:#000000;fill-opacity:1;fill-rule:nonzero;stroke:none"
             d="m 2441.01,382.16 v -20" /><path
             id="path967"
             style="fill:none;stroke:#000000;stroke-width:6;stroke-linecap:butt;stroke-linejoin:round;stroke-miterlimit:10;stroke-dasharray:none;stroke-opacity:1"
             d="m 2441.01,382.16 v -20" /><path
             id="path969"
             style="fill:#000000;fill-opacity:1;fill-rule:nonzero;stroke:none"
             d="m 2543.64,382.16 v -20" /><path
             id="path971"
             style="fill:none;stroke:#000000;stroke-width:6;stroke-linecap:butt;stroke-linejoin:round;stroke-miterlimit:10;stroke-dasharray:none;stroke-opacity:1"
             d="m 2543.64,382.16 v -20" /><path
             id="path973"
             style="fill:#000000;fill-opacity:1;fill-rule:nonzero;stroke:none"
             d="m 2627.5,382.16 v -20" /><path
             id="path975"
             style="fill:none;stroke:#000000;stroke-width:6;stroke-linecap:butt;stroke-linejoin:round;stroke-miterlimit:10;stroke-dasharray:none;stroke-opacity:1"
             d="m 2627.5,382.16 v -20" /><path
             id="path977"
             style="fill:#000000;fill-opacity:1;fill-rule:nonzero;stroke:none"
             d="m 2698.4,382.16 v -20" /><path
             id="path979"
             style="fill:none;stroke:#000000;stroke-width:6;stroke-linecap:butt;stroke-linejoin:round;stroke-miterlimit:10;stroke-dasharray:none;stroke-opacity:1"
             d="m 2698.4,382.16 v -20" /><path
             id="path981"
             style="fill:#000000;fill-opacity:1;fill-rule:nonzero;stroke:none"
             d="m 2759.82,382.16 v -20" /><path
             id="path983"
             style="fill:none;stroke:#000000;stroke-width:6;stroke-linecap:butt;stroke-linejoin:round;stroke-miterlimit:10;stroke-dasharray:none;stroke-opacity:1"
             d="m 2759.82,382.16 v -20" /><path
             id="path985"
             style="fill:#000000;fill-opacity:1;fill-rule:nonzero;stroke:none"
             d="m 2813.99,382.16 v -20" /><path
             id="path987"
             style="fill:none;stroke:#000000;stroke-width:6;stroke-linecap:butt;stroke-linejoin:round;stroke-miterlimit:10;stroke-dasharray:none;stroke-opacity:1"
             d="m 2813.99,382.16 v -20" /><path
             id="path989"
             style="fill:#000000;fill-opacity:1;fill-rule:nonzero;stroke:none"
             d="m 3181.26,382.16 v -20" /><path
             id="path991"
             style="fill:none;stroke:#000000;stroke-width:6;stroke-linecap:butt;stroke-linejoin:round;stroke-miterlimit:10;stroke-dasharray:none;stroke-opacity:1"
             d="m 3181.26,382.16 v -20" /><path
             id="path993"
             style="fill:#000000;fill-opacity:1;fill-rule:nonzero;stroke:none"
             d="m 3367.76,382.16 v -20" /><path
             id="path995"
             style="fill:none;stroke:#000000;stroke-width:6;stroke-linecap:butt;stroke-linejoin:round;stroke-miterlimit:10;stroke-dasharray:none;stroke-opacity:1"
             d="m 3367.76,382.16 v -20" /><path
             id="path997"
             style="fill:#000000;fill-opacity:1;fill-rule:nonzero;stroke:none"
             d="m 3500.07,382.16 v -20" /><path
             id="path999"
             style="fill:none;stroke:#000000;stroke-width:6;stroke-linecap:butt;stroke-linejoin:round;stroke-miterlimit:10;stroke-dasharray:none;stroke-opacity:1"
             d="m 3500.07,382.16 v -20" /><path
             id="path1001"
             style="fill:#000000;fill-opacity:1;fill-rule:nonzero;stroke:none"
             d="m 3602.71,382.16 v -20" /><path
             id="path1003"
             style="fill:none;stroke:#000000;stroke-width:6;stroke-linecap:butt;stroke-linejoin:round;stroke-miterlimit:10;stroke-dasharray:none;stroke-opacity:1"
             d="m 3602.71,382.16 v -20" /><path
             id="path1005"
             style="fill:#000000;fill-opacity:1;fill-rule:nonzero;stroke:none"
             d="m 3686.57,382.16 v -20" /><path
             id="path1007"
             style="fill:none;stroke:#000000;stroke-width:6;stroke-linecap:butt;stroke-linejoin:round;stroke-miterlimit:10;stroke-dasharray:none;stroke-opacity:1"
             d="m 3686.57,382.16 v -20" /><path
             id="path1009"
             style="fill:#000000;fill-opacity:1;fill-rule:nonzero;stroke:none"
             d="m 3757.47,382.16 v -20" /><path
             id="path1011"
             style="fill:none;stroke:#000000;stroke-width:6;stroke-linecap:butt;stroke-linejoin:round;stroke-miterlimit:10;stroke-dasharray:none;stroke-opacity:1"
             d="m 3757.47,382.16 v -20" /><path
             id="path1013"
             style="fill:#000000;fill-opacity:1;fill-rule:nonzero;stroke:none"
             d="m 3818.88,382.16 v -20" /><path
             id="path1015"
             style="fill:none;stroke:#000000;stroke-width:6;stroke-linecap:butt;stroke-linejoin:round;stroke-miterlimit:10;stroke-dasharray:none;stroke-opacity:1"
             d="m 3818.88,382.16 v -20" /><path
             id="path1017"
             style="fill:#000000;fill-opacity:1;fill-rule:nonzero;stroke:none"
             d="m 3873.06,382.16 v -20" /><path
             id="path1019"
             style="fill:none;stroke:#000000;stroke-width:6;stroke-linecap:butt;stroke-linejoin:round;stroke-miterlimit:10;stroke-dasharray:none;stroke-opacity:1"
             d="m 3873.06,382.16 v -20" /><g
             transform="scale(10)"
             id="g1021"><text
               id="text1025"
               style="font-variant:normal;font-weight:normal;font-size:10px;font-family:Arial;-inkscape-font-specification:Arial;writing-mode:lr-tb;fill:#000000;fill-opacity:1;fill-rule:nonzero;stroke:none"
               transform="matrix(1,0,0,-1,120.659,8.62227)"><tspan
                 id="tspan1023"
                 sodipodi:role="line"
                 y="0"
                 x="0 7.8710985 14.218755 20.371099 24.48243 30.610159 34.531258 37.309376 43.427742 49.765629 52.944141 55.89336 62.231247 66.152344 72.304688 78.642578 83.852577 86.631088 90.551796 96.469772 99.648674 103.01781 106.19633 114.06743 120.41508 125.62508 128.99423 136.69423 144.39423 151.34227 154.52118 160.86884 166.7868 170.70752 176.85986 180.03876 183.93993 186.71844 192.83641 199.18407 202.36298 207.57297 213.07101 219.19914 221.97726 228.12961">Operation Intensity : Ops/DDR byte (log scale)</tspan></text></g><path
             id="path1027"
             style="fill:#000000;fill-opacity:1;fill-rule:nonzero;stroke:none"
             d="M 582,720.363 H 547" /><path
             id="path1029"
             style="fill:none;stroke:#000000;stroke-width:8;stroke-linecap:butt;stroke-linejoin:round;stroke-miterlimit:10;stroke-dasharray:none;stroke-opacity:1"
             d="M 582,720.363 H 547" /><g
             transform="scale(10)"
             id="g1031"><text
               id="text1035"
               style="font-variant:normal;font-weight:normal;font-size:10px;font-family:Arial;-inkscape-font-specification:Arial;writing-mode:lr-tb;fill:#000000;fill-opacity:1;fill-rule:nonzero;stroke:none"
               transform="matrix(1,0,0,-1,33.2,68.552)"><tspan
                 id="tspan1033"
                 sodipodi:role="line"
                 y="0"
                 x="0 6.3624992">10</tspan></text><text
               id="text1039"
               style="font-variant:normal;font-weight:normal;font-size:7px;font-family:Arial;-inkscape-font-specification:Arial;writing-mode:lr-tb;fill:#000000;fill-opacity:1;fill-rule:nonzero;stroke:none"
               transform="matrix(1,0,0,-1,46.0203,72.38013)"><tspan
                 id="tspan1037"
                 y="0"
                 x="0">2</tspan></text></g><path
             id="path1041"
             style="fill:#000000;fill-opacity:1;fill-rule:nonzero;stroke:none"
             d="M 582,2962.06 H 547" /><path
             id="path1043"
             style="fill:none;stroke:#000000;stroke-width:8;stroke-linecap:butt;stroke-linejoin:round;stroke-miterlimit:10;stroke-dasharray:none;stroke-opacity:1"
             d="M 582,2962.06 H 547" /><g
             transform="scale(10)"
             id="g1045"><text
               id="text1049"
               style="font-variant:normal;font-weight:normal;font-size:10px;font-family:Arial;-inkscape-font-specification:Arial;writing-mode:lr-tb;fill:#000000;fill-opacity:1;fill-rule:nonzero;stroke:none"
               transform="matrix(1,0,0,-1,33.2,292.722)"><tspan
                 id="tspan1047"
                 sodipodi:role="line"
                 y="0"
                 x="0 6.3624992">10</tspan></text><text
               id="text1053"
               style="font-variant:normal;font-weight:normal;font-size:7px;font-family:Arial;-inkscape-font-specification:Arial;writing-mode:lr-tb;fill:#000000;fill-opacity:1;fill-rule:nonzero;stroke:none"
               transform="matrix(1,0,0,-1,46.0203,296.55013)"><tspan
                 id="tspan1051"
                 y="0"
                 x="0">3</tspan></text></g><path
             id="path1055"
             style="fill:#000000;fill-opacity:1;fill-rule:nonzero;stroke:none"
             d="M 582,503.121 H 562" /><path
             id="path1057"
             style="fill:none;stroke:#000000;stroke-width:6;stroke-linecap:butt;stroke-linejoin:round;stroke-miterlimit:10;stroke-dasharray:none;stroke-opacity:1"
             d="M 582,503.121 H 562" /><path
             id="path1059"
             style="fill:#000000;fill-opacity:1;fill-rule:nonzero;stroke:none"
             d="M 582,617.789 H 562" /><path
             id="path1061"
             style="fill:none;stroke:#000000;stroke-width:6;stroke-linecap:butt;stroke-linejoin:round;stroke-miterlimit:10;stroke-dasharray:none;stroke-opacity:1"
             d="M 582,617.789 H 562" /><path
             id="path1063"
             style="fill:#000000;fill-opacity:1;fill-rule:nonzero;stroke:none"
             d="M 582,1395.18 H 562" /><path
             id="path1065"
             style="fill:none;stroke:#000000;stroke-width:6;stroke-linecap:butt;stroke-linejoin:round;stroke-miterlimit:10;stroke-dasharray:none;stroke-opacity:1"
             d="M 582,1395.18 H 562" /><path
             id="path1067"
             style="fill:#000000;fill-opacity:1;fill-rule:nonzero;stroke:none"
             d="M 582,1789.93 H 562" /><path
             id="path1069"
             style="fill:none;stroke:#000000;stroke-width:6;stroke-linecap:butt;stroke-linejoin:round;stroke-miterlimit:10;stroke-dasharray:none;stroke-opacity:1"
             d="M 582,1789.93 H 562" /><path
             id="path1071"
             style="fill:#000000;fill-opacity:1;fill-rule:nonzero;stroke:none"
             d="M 582,2070 H 562" /><path
             id="path1073"
             style="fill:none;stroke:#000000;stroke-width:6;stroke-linecap:butt;stroke-linejoin:round;stroke-miterlimit:10;stroke-dasharray:none;stroke-opacity:1"
             d="M 582,2070 H 562" /><path
             id="path1075"
             style="fill:#000000;fill-opacity:1;fill-rule:nonzero;stroke:none"
             d="M 582,2287.24 H 562" /><path
             id="path1077"
             style="fill:none;stroke:#000000;stroke-width:6;stroke-linecap:butt;stroke-linejoin:round;stroke-miterlimit:10;stroke-dasharray:none;stroke-opacity:1"
             d="M 582,2287.24 H 562" /><path
             id="path1079"
             style="fill:#000000;fill-opacity:1;fill-rule:nonzero;stroke:none"
             d="M 582,2464.74 H 562" /><path
             id="path1081"
             style="fill:none;stroke:#000000;stroke-width:6;stroke-linecap:butt;stroke-linejoin:round;stroke-miterlimit:10;stroke-dasharray:none;stroke-opacity:1"
             d="M 582,2464.74 H 562" /><path
             id="path1083"
             style="fill:#000000;fill-opacity:1;fill-rule:nonzero;stroke:none"
             d="M 582,2614.82 H 562" /><path
             id="path1085"
             style="fill:none;stroke:#000000;stroke-width:6;stroke-linecap:butt;stroke-linejoin:round;stroke-miterlimit:10;stroke-dasharray:none;stroke-opacity:1"
             d="M 582,2614.82 H 562" /><path
             id="path1087"
             style="fill:#000000;fill-opacity:1;fill-rule:nonzero;stroke:none"
             d="M 582,2744.82 H 562" /><path
             id="path1089"
             style="fill:none;stroke:#000000;stroke-width:6;stroke-linecap:butt;stroke-linejoin:round;stroke-miterlimit:10;stroke-dasharray:none;stroke-opacity:1"
             d="M 582,2744.82 H 562" /><path
             id="path1091"
             style="fill:#000000;fill-opacity:1;fill-rule:nonzero;stroke:none"
             d="M 582,2859.49 H 562" /><path
             id="path1093"
             style="fill:none;stroke:#000000;stroke-width:6;stroke-linecap:butt;stroke-linejoin:round;stroke-miterlimit:10;stroke-dasharray:none;stroke-opacity:1"
             d="M 582,2859.49 H 562" /><g
             transform="scale(10)"
             id="g1095"><text
               id="text1099"
               style="font-variant:normal;font-weight:normal;font-size:10px;font-family:Arial;-inkscape-font-specification:Arial;writing-mode:lr-tb;fill:#000000;fill-opacity:1;fill-rule:nonzero;stroke:none"
               transform="matrix(0,1,1,0,27.1219,112.319)"><tspan
                 id="tspan1097"
                 sodipodi:role="line"
                 y="0"
                 x="0 7.7492189 10.527339 16.874994 23.003115 30.874214 37.22187 42.43187 45.801014 51.011017 57.163361 62.661407 65.83992 69.741478 72.5196 78.637962 84.985619 88.164131 93.37413 98.872177 104.99991 107.77842 113.93076">GigaOps/sec (log scale)</tspan></text></g></g></g><g
         id="g1101"><g
           clip-path="url(#clipPath1107)"
           id="g1103"><path
             id="path1109"
             style="fill:#ff0000;fill-opacity:1;fill-rule:nonzero;stroke:none"
             d="m 1671.07,2426.78 c 7.96,0 15.59,3.16 21.22,8.79 5.62,5.62 8.78,13.25 8.78,21.21 0,7.95 -3.16,15.59 -8.78,21.21 -5.63,5.63 -13.26,8.79 -21.22,8.79 -7.96,0 -15.59,-3.16 -21.21,-8.79 -5.63,-5.62 -8.79,-13.26 -8.79,-21.21 0,-7.96 3.16,-15.59 8.79,-21.21 5.62,-5.63 13.25,-8.79 21.21,-8.79" /><path
             id="path1111"
             style="fill:none;stroke:#ff0000;stroke-width:10;stroke-linecap:butt;stroke-linejoin:round;stroke-miterlimit:10;stroke-dasharray:none;stroke-opacity:1"
             d="m 1671.07,2426.78 c 7.96,0 15.59,3.16 21.22,8.79 5.62,5.62 8.78,13.25 8.78,21.21 0,7.95 -3.16,15.59 -8.78,21.21 -5.63,5.63 -13.26,8.79 -21.22,8.79 -7.96,0 -15.59,-3.16 -21.21,-8.79 -5.63,-5.62 -8.79,-13.26 -8.79,-21.21 0,-7.96 3.16,-15.59 8.79,-21.21 5.62,-5.63 13.25,-8.79 21.21,-8.79 z" /><path
             id="path1113"
             style="fill:#ff0000;fill-opacity:1;fill-rule:nonzero;stroke:none"
             d="m 2397.32,2857.81 c 7.96,0 15.59,3.16 21.22,8.79 5.62,5.62 8.78,13.26 8.78,21.21 0,7.96 -3.16,15.59 -8.78,21.21 -5.63,5.63 -13.26,8.79 -21.22,8.79 -7.96,0 -15.59,-3.16 -21.21,-8.79 -5.63,-5.62 -8.79,-13.25 -8.79,-21.21 0,-7.95 3.16,-15.59 8.79,-21.21 5.62,-5.63 13.25,-8.79 21.21,-8.79" /><path
             id="path1115"
             style="fill:none;stroke:#ff0000;stroke-width:10;stroke-linecap:butt;stroke-linejoin:round;stroke-miterlimit:10;stroke-dasharray:none;stroke-opacity:1"
             d="m 2397.32,2857.81 c 7.96,0 15.59,3.16 21.22,8.79 5.62,5.62 8.78,13.26 8.78,21.21 0,7.96 -3.16,15.59 -8.78,21.21 -5.63,5.63 -13.26,8.79 -21.22,8.79 -7.96,0 -15.59,-3.16 -21.21,-8.79 -5.63,-5.62 -8.79,-13.25 -8.79,-21.21 0,-7.95 3.16,-15.59 8.79,-21.21 5.62,-5.63 13.25,-8.79 21.21,-8.79 z" /><path
             id="path1117"
             style="fill:#ff0000;fill-opacity:1;fill-rule:nonzero;stroke:none"
             d="m 1721.83,2475.31 c 7.96,0 15.59,3.16 21.21,8.79 5.63,5.62 8.79,13.26 8.79,21.21 0,7.96 -3.16,15.59 -8.79,21.21 -5.62,5.63 -13.25,8.79 -21.21,8.79 -7.95,0 -15.59,-3.16 -21.21,-8.79 -5.63,-5.62 -8.79,-13.25 -8.79,-21.21 0,-7.95 3.16,-15.59 8.79,-21.21 5.62,-5.63 13.26,-8.79 21.21,-8.79" /><path
             id="path1119"
             style="fill:none;stroke:#ff0000;stroke-width:10;stroke-linecap:butt;stroke-linejoin:round;stroke-miterlimit:10;stroke-dasharray:none;stroke-opacity:1"
             d="m 1721.83,2475.31 c 7.96,0 15.59,3.16 21.21,8.79 5.63,5.62 8.79,13.26 8.79,21.21 0,7.96 -3.16,15.59 -8.79,21.21 -5.62,5.63 -13.25,8.79 -21.21,8.79 -7.95,0 -15.59,-3.16 -21.21,-8.79 -5.63,-5.62 -8.79,-13.25 -8.79,-21.21 0,-7.95 3.16,-15.59 8.79,-21.21 5.62,-5.63 13.26,-8.79 21.21,-8.79 z" /><path
             id="path1121"
             style="fill:#ff0000;fill-opacity:1;fill-rule:nonzero;stroke:none"
             d="m 2716.13,2861.33 c 7.96,0 15.59,3.16 21.21,8.79 5.63,5.62 8.79,13.26 8.79,21.21 0,7.96 -3.16,15.59 -8.79,21.21 -5.62,5.63 -13.25,8.79 -21.21,8.79 -7.95,0 -15.59,-3.16 -21.21,-8.79 -5.63,-5.62 -8.79,-13.25 -8.79,-21.21 0,-7.95 3.16,-15.59 8.79,-21.21 5.62,-5.63 13.26,-8.79 21.21,-8.79" /><path
             id="path1123"
             style="fill:none;stroke:#ff0000;stroke-width:10;stroke-linecap:butt;stroke-linejoin:round;stroke-miterlimit:10;stroke-dasharray:none;stroke-opacity:1"
             d="m 2716.13,2861.33 c 7.96,0 15.59,3.16 21.21,8.79 5.63,5.62 8.79,13.26 8.79,21.21 0,7.96 -3.16,15.59 -8.79,21.21 -5.62,5.63 -13.25,8.79 -21.21,8.79 -7.95,0 -15.59,-3.16 -21.21,-8.79 -5.63,-5.62 -8.79,-13.25 -8.79,-21.21 0,-7.95 3.16,-15.59 8.79,-21.21 5.62,-5.63 13.26,-8.79 21.21,-8.79 z" /><path
             id="path1125"
             style="fill:#ff0000;fill-opacity:1;fill-rule:nonzero;stroke:none"
             d="m 2713.75,2876.31 c 7.96,0 15.59,3.16 21.21,8.79 5.63,5.62 8.79,13.26 8.79,21.21 0,7.96 -3.16,15.59 -8.79,21.21 -5.62,5.63 -13.25,8.79 -21.21,8.79 -7.96,0 -15.59,-3.16 -21.21,-8.79 -5.63,-5.62 -8.79,-13.25 -8.79,-21.21 0,-7.95 3.16,-15.59 8.79,-21.21 5.62,-5.63 13.25,-8.79 21.21,-8.79" /><path
             id="path1127"
             style="fill:none;stroke:#ff0000;stroke-width:10;stroke-linecap:butt;stroke-linejoin:round;stroke-miterlimit:10;stroke-dasharray:none;stroke-opacity:1"
             d="m 2713.75,2876.31 c 7.96,0 15.59,3.16 21.21,8.79 5.63,5.62 8.79,13.26 8.79,21.21 0,7.96 -3.16,15.59 -8.79,21.21 -5.62,5.63 -13.25,8.79 -21.21,8.79 -7.96,0 -15.59,-3.16 -21.21,-8.79 -5.63,-5.62 -8.79,-13.25 -8.79,-21.21 0,-7.95 3.16,-15.59 8.79,-21.21 5.62,-5.63 13.25,-8.79 21.21,-8.79 z" /><path
             id="path1129"
             style="fill:#ff0000;fill-opacity:1;fill-rule:nonzero;stroke:none"
             d="m 2030.22,2861.15 c 7.96,0 15.59,3.16 21.21,8.79 5.63,5.62 8.79,13.26 8.79,21.21 0,7.96 -3.16,15.59 -8.79,21.21 -5.62,5.63 -13.25,8.79 -21.21,8.79 -7.95,0 -15.59,-3.16 -21.21,-8.79 -5.63,-5.62 -8.79,-13.25 -8.79,-21.21 0,-7.95 3.16,-15.59 8.79,-21.21 5.62,-5.63 13.26,-8.79 21.21,-8.79" /><path
             id="path1131"
             style="fill:none;stroke:#ff0000;stroke-width:10;stroke-linecap:butt;stroke-linejoin:round;stroke-miterlimit:10;stroke-dasharray:none;stroke-opacity:1"
             d="m 2030.22,2861.15 c 7.96,0 15.59,3.16 21.21,8.79 5.63,5.62 8.79,13.26 8.79,21.21 0,7.96 -3.16,15.59 -8.79,21.21 -5.62,5.63 -13.25,8.79 -21.21,8.79 -7.95,0 -15.59,-3.16 -21.21,-8.79 -5.63,-5.62 -8.79,-13.25 -8.79,-21.21 0,-7.95 3.16,-15.59 8.79,-21.21 5.62,-5.63 13.26,-8.79 21.21,-8.79 z" /><path
             id="path1133"
             style="fill:#ff0000;fill-opacity:1;fill-rule:nonzero;stroke:none"
             d="m 3032.56,2876.93 c 7.96,0 15.59,3.16 21.21,8.79 5.63,5.62 8.79,13.25 8.79,21.21 0,7.96 -3.16,15.59 -8.79,21.21 -5.62,5.63 -13.25,8.79 -21.21,8.79 -7.95,0 -15.59,-3.16 -21.21,-8.79 -5.63,-5.62 -8.79,-13.25 -8.79,-21.21 0,-7.96 3.16,-15.59 8.79,-21.21 5.62,-5.63 13.26,-8.79 21.21,-8.79" /><path
             id="path1135"
             style="fill:none;stroke:#ff0000;stroke-width:10;stroke-linecap:butt;stroke-linejoin:round;stroke-miterlimit:10;stroke-dasharray:none;stroke-opacity:1"
             d="m 3032.56,2876.93 c 7.96,0 15.59,3.16 21.21,8.79 5.63,5.62 8.79,13.25 8.79,21.21 0,7.96 -3.16,15.59 -8.79,21.21 -5.62,5.63 -13.25,8.79 -21.21,8.79 -7.95,0 -15.59,-3.16 -21.21,-8.79 -5.63,-5.62 -8.79,-13.25 -8.79,-21.21 0,-7.96 3.16,-15.59 8.79,-21.21 5.62,-5.63 13.26,-8.79 21.21,-8.79 z" /><path
             id="path1137"
             style="fill:#ff0000;fill-opacity:1;fill-rule:nonzero;stroke:none"
             d="m 2030.22,2861.15 c 7.96,0 15.59,3.16 21.21,8.79 5.63,5.62 8.79,13.26 8.79,21.21 0,7.96 -3.16,15.59 -8.79,21.21 -5.62,5.63 -13.25,8.79 -21.21,8.79 -7.95,0 -15.59,-3.16 -21.21,-8.79 -5.63,-5.62 -8.79,-13.25 -8.79,-21.21 0,-7.95 3.16,-15.59 8.79,-21.21 5.62,-5.63 13.26,-8.79 21.21,-8.79" /><path
             id="path1139"
             style="fill:none;stroke:#ff0000;stroke-width:10;stroke-linecap:butt;stroke-linejoin:round;stroke-miterlimit:10;stroke-dasharray:none;stroke-opacity:1"
             d="m 2030.22,2861.15 c 7.96,0 15.59,3.16 21.21,8.79 5.63,5.62 8.79,13.26 8.79,21.21 0,7.96 -3.16,15.59 -8.79,21.21 -5.62,5.63 -13.25,8.79 -21.21,8.79 -7.95,0 -15.59,-3.16 -21.21,-8.79 -5.63,-5.62 -8.79,-13.25 -8.79,-21.21 0,-7.95 3.16,-15.59 8.79,-21.21 5.62,-5.63 13.26,-8.79 21.21,-8.79 z" /><path
             id="path1141"
             style="fill:#ff0000;fill-opacity:1;fill-rule:nonzero;stroke:none"
             d="m 3032.56,2876.93 c 7.96,0 15.59,3.16 21.21,8.79 5.63,5.62 8.79,13.25 8.79,21.21 0,7.96 -3.16,15.59 -8.79,21.21 -5.62,5.63 -13.25,8.79 -21.21,8.79 -7.95,0 -15.59,-3.16 -21.21,-8.79 -5.63,-5.62 -8.79,-13.25 -8.79,-21.21 0,-7.96 3.16,-15.59 8.79,-21.21 5.62,-5.63 13.26,-8.79 21.21,-8.79" /><path
             id="path1143"
             style="fill:none;stroke:#ff0000;stroke-width:10;stroke-linecap:butt;stroke-linejoin:round;stroke-miterlimit:10;stroke-dasharray:none;stroke-opacity:1"
             d="m 3032.56,2876.93 c 7.96,0 15.59,3.16 21.21,8.79 5.63,5.62 8.79,13.25 8.79,21.21 0,7.96 -3.16,15.59 -8.79,21.21 -5.62,5.63 -13.25,8.79 -21.21,8.79 -7.95,0 -15.59,-3.16 -21.21,-8.79 -5.63,-5.62 -8.79,-13.25 -8.79,-21.21 0,-7.96 3.16,-15.59 8.79,-21.21 5.62,-5.63 13.26,-8.79 21.21,-8.79 z" /><path
             id="path1145"
             style="fill:#ff0000;fill-opacity:1;fill-rule:nonzero;stroke:none"
             d="m 3031.37,2884.64 c 7.95,0 15.59,3.16 21.21,8.79 5.63,5.62 8.79,13.25 8.79,21.21 0,7.96 -3.16,15.59 -8.79,21.21 -5.62,5.63 -13.26,8.79 -21.21,8.79 -7.96,0 -15.59,-3.16 -21.21,-8.79 -5.63,-5.62 -8.79,-13.25 -8.79,-21.21 0,-7.96 3.16,-15.59 8.79,-21.21 5.62,-5.63 13.25,-8.79 21.21,-8.79" /><path
             id="path1147"
             style="fill:none;stroke:#ff0000;stroke-width:10;stroke-linecap:butt;stroke-linejoin:round;stroke-miterlimit:10;stroke-dasharray:none;stroke-opacity:1"
             d="m 3031.37,2884.64 c 7.95,0 15.59,3.16 21.21,8.79 5.63,5.62 8.79,13.25 8.79,21.21 0,7.96 -3.16,15.59 -8.79,21.21 -5.62,5.63 -13.26,8.79 -21.21,8.79 -7.96,0 -15.59,-3.16 -21.21,-8.79 -5.63,-5.62 -8.79,-13.25 -8.79,-21.21 0,-7.96 3.16,-15.59 8.79,-21.21 5.62,-5.63 13.25,-8.79 21.21,-8.79 z" /><path
             id="path1149"
             style="fill:#ff0000;fill-opacity:1;fill-rule:nonzero;stroke:none"
             d="m 2343.74,2878.14 c 7.96,0 15.59,3.16 21.21,8.79 5.63,5.62 8.79,13.25 8.79,21.21 0,7.96 -3.16,15.59 -8.79,21.21 -5.62,5.63 -13.25,8.79 -21.21,8.79 -7.95,0 -15.59,-3.16 -21.21,-8.79 -5.63,-5.62 -8.79,-13.25 -8.79,-21.21 0,-7.96 3.16,-15.59 8.79,-21.21 5.62,-5.63 13.26,-8.79 21.21,-8.79" /><path
             id="path1151"
             style="fill:none;stroke:#ff0000;stroke-width:10;stroke-linecap:butt;stroke-linejoin:round;stroke-miterlimit:10;stroke-dasharray:none;stroke-opacity:1"
             d="m 2343.74,2878.14 c 7.96,0 15.59,3.16 21.21,8.79 5.63,5.62 8.79,13.25 8.79,21.21 0,7.96 -3.16,15.59 -8.79,21.21 -5.62,5.63 -13.25,8.79 -21.21,8.79 -7.95,0 -15.59,-3.16 -21.21,-8.79 -5.63,-5.62 -8.79,-13.25 -8.79,-21.21 0,-7.96 3.16,-15.59 8.79,-21.21 5.62,-5.63 13.26,-8.79 21.21,-8.79 z" /><path
             id="path1153"
             style="fill:#ff0000;fill-opacity:1;fill-rule:nonzero;stroke:none"
             d="m 3350.18,2884.64 c 7.96,0 15.59,3.16 21.21,8.79 5.63,5.62 8.79,13.25 8.79,21.21 0,7.96 -3.16,15.59 -8.79,21.21 -5.62,5.63 -13.25,8.79 -21.21,8.79 -7.96,0 -15.59,-3.16 -21.21,-8.79 -5.63,-5.62 -8.79,-13.25 -8.79,-21.21 0,-7.96 3.16,-15.59 8.79,-21.21 5.62,-5.63 13.25,-8.79 21.21,-8.79" /><path
             id="path1155"
             style="fill:none;stroke:#ff0000;stroke-width:10;stroke-linecap:butt;stroke-linejoin:round;stroke-miterlimit:10;stroke-dasharray:none;stroke-opacity:1"
             d="m 3350.18,2884.64 c 7.96,0 15.59,3.16 21.21,8.79 5.63,5.62 8.79,13.25 8.79,21.21 0,7.96 -3.16,15.59 -8.79,21.21 -5.62,5.63 -13.25,8.79 -21.21,8.79 -7.96,0 -15.59,-3.16 -21.21,-8.79 -5.63,-5.62 -8.79,-13.25 -8.79,-21.21 0,-7.96 3.16,-15.59 8.79,-21.21 5.62,-5.63 13.25,-8.79 21.21,-8.79 z" /><path
             id="path1157"
             style="fill:#ff0000;fill-opacity:1;fill-rule:nonzero;stroke:none"
             d="m 2343.74,2878.14 c 7.96,0 15.59,3.16 21.21,8.79 5.63,5.62 8.79,13.25 8.79,21.21 0,7.96 -3.16,15.59 -8.79,21.21 -5.62,5.63 -13.25,8.79 -21.21,8.79 -7.95,0 -15.59,-3.16 -21.21,-8.79 -5.63,-5.62 -8.79,-13.25 -8.79,-21.21 0,-7.96 3.16,-15.59 8.79,-21.21 5.62,-5.63 13.26,-8.79 21.21,-8.79" /><path
             id="path1159"
             style="fill:none;stroke:#ff0000;stroke-width:10;stroke-linecap:butt;stroke-linejoin:round;stroke-miterlimit:10;stroke-dasharray:none;stroke-opacity:1"
             d="m 2343.74,2878.14 c 7.96,0 15.59,3.16 21.21,8.79 5.63,5.62 8.79,13.25 8.79,21.21 0,7.96 -3.16,15.59 -8.79,21.21 -5.62,5.63 -13.25,8.79 -21.21,8.79 -7.95,0 -15.59,-3.16 -21.21,-8.79 -5.63,-5.62 -8.79,-13.25 -8.79,-21.21 0,-7.96 3.16,-15.59 8.79,-21.21 5.62,-5.63 13.26,-8.79 21.21,-8.79 z" /><path
             id="path1161"
             style="fill:#ff0000;fill-opacity:1;fill-rule:nonzero;stroke:none"
             d="m 3350.18,2884.64 c 7.96,0 15.59,3.16 21.21,8.79 5.63,5.62 8.79,13.25 8.79,21.21 0,7.96 -3.16,15.59 -8.79,21.21 -5.62,5.63 -13.25,8.79 -21.21,8.79 -7.96,0 -15.59,-3.16 -21.21,-8.79 -5.63,-5.62 -8.79,-13.25 -8.79,-21.21 0,-7.96 3.16,-15.59 8.79,-21.21 5.62,-5.63 13.25,-8.79 21.21,-8.79" /><path
             id="path1163"
             style="fill:none;stroke:#ff0000;stroke-width:10;stroke-linecap:butt;stroke-linejoin:round;stroke-miterlimit:10;stroke-dasharray:none;stroke-opacity:1"
             d="m 3350.18,2884.64 c 7.96,0 15.59,3.16 21.21,8.79 5.63,5.62 8.79,13.25 8.79,21.21 0,7.96 -3.16,15.59 -8.79,21.21 -5.62,5.63 -13.25,8.79 -21.21,8.79 -7.96,0 -15.59,-3.16 -21.21,-8.79 -5.63,-5.62 -8.79,-13.25 -8.79,-21.21 0,-7.96 3.16,-15.59 8.79,-21.21 5.62,-5.63 13.25,-8.79 21.21,-8.79 z" /><path
             id="path1165"
             style="fill:#ff0000;fill-opacity:1;fill-rule:nonzero;stroke:none"
             d="m 2343.74,2878.14 c 7.96,0 15.59,3.16 21.21,8.79 5.63,5.62 8.79,13.25 8.79,21.21 0,7.96 -3.16,15.59 -8.79,21.21 -5.62,5.63 -13.25,8.79 -21.21,8.79 -7.95,0 -15.59,-3.16 -21.21,-8.79 -5.63,-5.62 -8.79,-13.25 -8.79,-21.21 0,-7.96 3.16,-15.59 8.79,-21.21 5.62,-5.63 13.26,-8.79 21.21,-8.79" /><path
             id="path1167"
             style="fill:none;stroke:#ff0000;stroke-width:10;stroke-linecap:butt;stroke-linejoin:round;stroke-miterlimit:10;stroke-dasharray:none;stroke-opacity:1"
             d="m 2343.74,2878.14 c 7.96,0 15.59,3.16 21.21,8.79 5.63,5.62 8.79,13.25 8.79,21.21 0,7.96 -3.16,15.59 -8.79,21.21 -5.62,5.63 -13.25,8.79 -21.21,8.79 -7.95,0 -15.59,-3.16 -21.21,-8.79 -5.63,-5.62 -8.79,-13.25 -8.79,-21.21 0,-7.96 3.16,-15.59 8.79,-21.21 5.62,-5.63 13.26,-8.79 21.21,-8.79 z" /><path
             id="path1169"
             style="fill:#ff0000;fill-opacity:1;fill-rule:nonzero;stroke:none"
             d="m 3350.18,2884.64 c 7.96,0 15.59,3.16 21.21,8.79 5.63,5.62 8.79,13.25 8.79,21.21 0,7.96 -3.16,15.59 -8.79,21.21 -5.62,5.63 -13.25,8.79 -21.21,8.79 -7.96,0 -15.59,-3.16 -21.21,-8.79 -5.63,-5.62 -8.79,-13.25 -8.79,-21.21 0,-7.96 3.16,-15.59 8.79,-21.21 5.62,-5.63 13.25,-8.79 21.21,-8.79" /><path
             id="path1171"
             style="fill:none;stroke:#ff0000;stroke-width:10;stroke-linecap:butt;stroke-linejoin:round;stroke-miterlimit:10;stroke-dasharray:none;stroke-opacity:1"
             d="m 3350.18,2884.64 c 7.96,0 15.59,3.16 21.21,8.79 5.63,5.62 8.79,13.25 8.79,21.21 0,7.96 -3.16,15.59 -8.79,21.21 -5.62,5.63 -13.25,8.79 -21.21,8.79 -7.96,0 -15.59,-3.16 -21.21,-8.79 -5.63,-5.62 -8.79,-13.25 -8.79,-21.21 0,-7.96 3.16,-15.59 8.79,-21.21 5.62,-5.63 13.25,-8.79 21.21,-8.79 z" /><path
             id="path1173"
             style="fill:#ff0000;fill-opacity:1;fill-rule:nonzero;stroke:none"
             d="m 2343.74,2878.14 c 7.96,0 15.59,3.16 21.21,8.79 5.63,5.62 8.79,13.25 8.79,21.21 0,7.96 -3.16,15.59 -8.79,21.21 -5.62,5.63 -13.25,8.79 -21.21,8.79 -7.95,0 -15.59,-3.16 -21.21,-8.79 -5.63,-5.62 -8.79,-13.25 -8.79,-21.21 0,-7.96 3.16,-15.59 8.79,-21.21 5.62,-5.63 13.26,-8.79 21.21,-8.79" /><path
             id="path1175"
             style="fill:none;stroke:#ff0000;stroke-width:10;stroke-linecap:butt;stroke-linejoin:round;stroke-miterlimit:10;stroke-dasharray:none;stroke-opacity:1"
             d="m 2343.74,2878.14 c 7.96,0 15.59,3.16 21.21,8.79 5.63,5.62 8.79,13.25 8.79,21.21 0,7.96 -3.16,15.59 -8.79,21.21 -5.62,5.63 -13.25,8.79 -21.21,8.79 -7.95,0 -15.59,-3.16 -21.21,-8.79 -5.63,-5.62 -8.79,-13.25 -8.79,-21.21 0,-7.96 3.16,-15.59 8.79,-21.21 5.62,-5.63 13.26,-8.79 21.21,-8.79 z" /><path
             id="path1177"
             style="fill:#ff0000;fill-opacity:1;fill-rule:nonzero;stroke:none"
             d="m 3350.18,2884.64 c 7.96,0 15.59,3.16 21.21,8.79 5.63,5.62 8.79,13.25 8.79,21.21 0,7.96 -3.16,15.59 -8.79,21.21 -5.62,5.63 -13.25,8.79 -21.21,8.79 -7.96,0 -15.59,-3.16 -21.21,-8.79 -5.63,-5.62 -8.79,-13.25 -8.79,-21.21 0,-7.96 3.16,-15.59 8.79,-21.21 5.62,-5.63 13.25,-8.79 21.21,-8.79" /><path
             id="path1179"
             style="fill:none;stroke:#ff0000;stroke-width:10;stroke-linecap:butt;stroke-linejoin:round;stroke-miterlimit:10;stroke-dasharray:none;stroke-opacity:1"
             d="m 3350.18,2884.64 c 7.96,0 15.59,3.16 21.21,8.79 5.63,5.62 8.79,13.25 8.79,21.21 0,7.96 -3.16,15.59 -8.79,21.21 -5.62,5.63 -13.25,8.79 -21.21,8.79 -7.96,0 -15.59,-3.16 -21.21,-8.79 -5.63,-5.62 -8.79,-13.25 -8.79,-21.21 0,-7.96 3.16,-15.59 8.79,-21.21 5.62,-5.63 13.25,-8.79 21.21,-8.79 z" /><path
             id="path1181"
             style="fill:#ff0000;fill-opacity:1;fill-rule:nonzero;stroke:none"
             d="m 2343.74,2878.14 c 7.96,0 15.59,3.16 21.21,8.79 5.63,5.62 8.79,13.25 8.79,21.21 0,7.96 -3.16,15.59 -8.79,21.21 -5.62,5.63 -13.25,8.79 -21.21,8.79 -7.95,0 -15.59,-3.16 -21.21,-8.79 -5.63,-5.62 -8.79,-13.25 -8.79,-21.21 0,-7.96 3.16,-15.59 8.79,-21.21 5.62,-5.63 13.26,-8.79 21.21,-8.79" /><path
             id="path1183"
             style="fill:none;stroke:#ff0000;stroke-width:10;stroke-linecap:butt;stroke-linejoin:round;stroke-miterlimit:10;stroke-dasharray:none;stroke-opacity:1"
             d="m 2343.74,2878.14 c 7.96,0 15.59,3.16 21.21,8.79 5.63,5.62 8.79,13.25 8.79,21.21 0,7.96 -3.16,15.59 -8.79,21.21 -5.62,5.63 -13.25,8.79 -21.21,8.79 -7.95,0 -15.59,-3.16 -21.21,-8.79 -5.63,-5.62 -8.79,-13.25 -8.79,-21.21 0,-7.96 3.16,-15.59 8.79,-21.21 5.62,-5.63 13.26,-8.79 21.21,-8.79 z" /><path
             id="path1185"
             style="fill:#ff0000;fill-opacity:1;fill-rule:nonzero;stroke:none"
             d="m 3350.18,2884.64 c 7.96,0 15.59,3.16 21.21,8.79 5.63,5.62 8.79,13.25 8.79,21.21 0,7.96 -3.16,15.59 -8.79,21.21 -5.62,5.63 -13.25,8.79 -21.21,8.79 -7.96,0 -15.59,-3.16 -21.21,-8.79 -5.63,-5.62 -8.79,-13.25 -8.79,-21.21 0,-7.96 3.16,-15.59 8.79,-21.21 5.62,-5.63 13.25,-8.79 21.21,-8.79" /><path
             id="path1187"
             style="fill:none;stroke:#ff0000;stroke-width:10;stroke-linecap:butt;stroke-linejoin:round;stroke-miterlimit:10;stroke-dasharray:none;stroke-opacity:1"
             d="m 3350.18,2884.64 c 7.96,0 15.59,3.16 21.21,8.79 5.63,5.62 8.79,13.25 8.79,21.21 0,7.96 -3.16,15.59 -8.79,21.21 -5.62,5.63 -13.25,8.79 -21.21,8.79 -7.96,0 -15.59,-3.16 -21.21,-8.79 -5.63,-5.62 -8.79,-13.25 -8.79,-21.21 0,-7.96 3.16,-15.59 8.79,-21.21 5.62,-5.63 13.25,-8.79 21.21,-8.79 z" /><path
             id="path1189"
             style="fill:#ff0000;fill-opacity:1;fill-rule:nonzero;stroke:none"
             d="m 2343.74,2878.14 c 7.96,0 15.59,3.16 21.21,8.79 5.63,5.62 8.79,13.25 8.79,21.21 0,7.96 -3.16,15.59 -8.79,21.21 -5.62,5.63 -13.25,8.79 -21.21,8.79 -7.95,0 -15.59,-3.16 -21.21,-8.79 -5.63,-5.62 -8.79,-13.25 -8.79,-21.21 0,-7.96 3.16,-15.59 8.79,-21.21 5.62,-5.63 13.26,-8.79 21.21,-8.79" /><path
             id="path1191"
             style="fill:none;stroke:#ff0000;stroke-width:10;stroke-linecap:butt;stroke-linejoin:round;stroke-miterlimit:10;stroke-dasharray:none;stroke-opacity:1"
             d="m 2343.74,2878.14 c 7.96,0 15.59,3.16 21.21,8.79 5.63,5.62 8.79,13.25 8.79,21.21 0,7.96 -3.16,15.59 -8.79,21.21 -5.62,5.63 -13.25,8.79 -21.21,8.79 -7.95,0 -15.59,-3.16 -21.21,-8.79 -5.63,-5.62 -8.79,-13.25 -8.79,-21.21 0,-7.96 3.16,-15.59 8.79,-21.21 5.62,-5.63 13.26,-8.79 21.21,-8.79 z" /><path
             id="path1193"
             style="fill:#ff0000;fill-opacity:1;fill-rule:nonzero;stroke:none"
             d="m 3350.18,2884.64 c 7.96,0 15.59,3.16 21.21,8.79 5.63,5.62 8.79,13.25 8.79,21.21 0,7.96 -3.16,15.59 -8.79,21.21 -5.62,5.63 -13.25,8.79 -21.21,8.79 -7.96,0 -15.59,-3.16 -21.21,-8.79 -5.63,-5.62 -8.79,-13.25 -8.79,-21.21 0,-7.96 3.16,-15.59 8.79,-21.21 5.62,-5.63 13.25,-8.79 21.21,-8.79" /><path
             id="path1195"
             style="fill:none;stroke:#ff0000;stroke-width:10;stroke-linecap:butt;stroke-linejoin:round;stroke-miterlimit:10;stroke-dasharray:none;stroke-opacity:1"
             d="m 3350.18,2884.64 c 7.96,0 15.59,3.16 21.21,8.79 5.63,5.62 8.79,13.25 8.79,21.21 0,7.96 -3.16,15.59 -8.79,21.21 -5.62,5.63 -13.25,8.79 -21.21,8.79 -7.96,0 -15.59,-3.16 -21.21,-8.79 -5.63,-5.62 -8.79,-13.25 -8.79,-21.21 0,-7.96 3.16,-15.59 8.79,-21.21 5.62,-5.63 13.25,-8.79 21.21,-8.79 z" /><path
             id="path1197"
             style="fill:#ff0000;fill-opacity:1;fill-rule:nonzero;stroke:none"
             d="m 2343.74,2878.14 c 7.96,0 15.59,3.16 21.21,8.79 5.63,5.62 8.79,13.25 8.79,21.21 0,7.96 -3.16,15.59 -8.79,21.21 -5.62,5.63 -13.25,8.79 -21.21,8.79 -7.95,0 -15.59,-3.16 -21.21,-8.79 -5.63,-5.62 -8.79,-13.25 -8.79,-21.21 0,-7.96 3.16,-15.59 8.79,-21.21 5.62,-5.63 13.26,-8.79 21.21,-8.79" /><path
             id="path1199"
             style="fill:none;stroke:#ff0000;stroke-width:10;stroke-linecap:butt;stroke-linejoin:round;stroke-miterlimit:10;stroke-dasharray:none;stroke-opacity:1"
             d="m 2343.74,2878.14 c 7.96,0 15.59,3.16 21.21,8.79 5.63,5.62 8.79,13.25 8.79,21.21 0,7.96 -3.16,15.59 -8.79,21.21 -5.62,5.63 -13.25,8.79 -21.21,8.79 -7.95,0 -15.59,-3.16 -21.21,-8.79 -5.63,-5.62 -8.79,-13.25 -8.79,-21.21 0,-7.96 3.16,-15.59 8.79,-21.21 5.62,-5.63 13.26,-8.79 21.21,-8.79 z" /><path
             id="path1201"
             style="fill:#ff0000;fill-opacity:1;fill-rule:nonzero;stroke:none"
             d="m 3350.18,2884.64 c 7.96,0 15.59,3.16 21.21,8.79 5.63,5.62 8.79,13.25 8.79,21.21 0,7.96 -3.16,15.59 -8.79,21.21 -5.62,5.63 -13.25,8.79 -21.21,8.79 -7.96,0 -15.59,-3.16 -21.21,-8.79 -5.63,-5.62 -8.79,-13.25 -8.79,-21.21 0,-7.96 3.16,-15.59 8.79,-21.21 5.62,-5.63 13.25,-8.79 21.21,-8.79" /><path
             id="path1203"
             style="fill:none;stroke:#ff0000;stroke-width:10;stroke-linecap:butt;stroke-linejoin:round;stroke-miterlimit:10;stroke-dasharray:none;stroke-opacity:1"
             d="m 3350.18,2884.64 c 7.96,0 15.59,3.16 21.21,8.79 5.63,5.62 8.79,13.25 8.79,21.21 0,7.96 -3.16,15.59 -8.79,21.21 -5.62,5.63 -13.25,8.79 -21.21,8.79 -7.96,0 -15.59,-3.16 -21.21,-8.79 -5.63,-5.62 -8.79,-13.25 -8.79,-21.21 0,-7.96 3.16,-15.59 8.79,-21.21 5.62,-5.63 13.25,-8.79 21.21,-8.79 z" /><path
             id="path1205"
             style="fill:#ff0000;fill-opacity:1;fill-rule:nonzero;stroke:none"
             d="m 2343.74,2878.14 c 7.96,0 15.59,3.16 21.21,8.79 5.63,5.62 8.79,13.25 8.79,21.21 0,7.96 -3.16,15.59 -8.79,21.21 -5.62,5.63 -13.25,8.79 -21.21,8.79 -7.95,0 -15.59,-3.16 -21.21,-8.79 -5.63,-5.62 -8.79,-13.25 -8.79,-21.21 0,-7.96 3.16,-15.59 8.79,-21.21 5.62,-5.63 13.26,-8.79 21.21,-8.79" /><path
             id="path1207"
             style="fill:none;stroke:#ff0000;stroke-width:10;stroke-linecap:butt;stroke-linejoin:round;stroke-miterlimit:10;stroke-dasharray:none;stroke-opacity:1"
             d="m 2343.74,2878.14 c 7.96,0 15.59,3.16 21.21,8.79 5.63,5.62 8.79,13.25 8.79,21.21 0,7.96 -3.16,15.59 -8.79,21.21 -5.62,5.63 -13.25,8.79 -21.21,8.79 -7.95,0 -15.59,-3.16 -21.21,-8.79 -5.63,-5.62 -8.79,-13.25 -8.79,-21.21 0,-7.96 3.16,-15.59 8.79,-21.21 5.62,-5.63 13.26,-8.79 21.21,-8.79 z" /><path
             id="path1209"
             style="fill:#ff0000;fill-opacity:1;fill-rule:nonzero;stroke:none"
             d="m 3350.18,2884.64 c 7.96,0 15.59,3.16 21.21,8.79 5.63,5.62 8.79,13.25 8.79,21.21 0,7.96 -3.16,15.59 -8.79,21.21 -5.62,5.63 -13.25,8.79 -21.21,8.79 -7.96,0 -15.59,-3.16 -21.21,-8.79 -5.63,-5.62 -8.79,-13.25 -8.79,-21.21 0,-7.96 3.16,-15.59 8.79,-21.21 5.62,-5.63 13.25,-8.79 21.21,-8.79" /><path
             id="path1211"
             style="fill:none;stroke:#ff0000;stroke-width:10;stroke-linecap:butt;stroke-linejoin:round;stroke-miterlimit:10;stroke-dasharray:none;stroke-opacity:1"
             d="m 3350.18,2884.64 c 7.96,0 15.59,3.16 21.21,8.79 5.63,5.62 8.79,13.25 8.79,21.21 0,7.96 -3.16,15.59 -8.79,21.21 -5.62,5.63 -13.25,8.79 -21.21,8.79 -7.96,0 -15.59,-3.16 -21.21,-8.79 -5.63,-5.62 -8.79,-13.25 -8.79,-21.21 0,-7.96 3.16,-15.59 8.79,-21.21 5.62,-5.63 13.25,-8.79 21.21,-8.79 z" /><path
             id="path1213"
             style="fill:#ff0000;fill-opacity:1;fill-rule:nonzero;stroke:none"
             d="m 3349.58,2888.56 c 7.96,0 15.59,3.16 21.21,8.79 5.63,5.62 8.79,13.26 8.79,21.21 0,7.96 -3.16,15.59 -8.79,21.21 -5.62,5.63 -13.25,8.79 -21.21,8.79 -7.95,0 -15.59,-3.16 -21.21,-8.79 -5.63,-5.62 -8.79,-13.25 -8.79,-21.21 0,-7.95 3.16,-15.59 8.79,-21.21 5.62,-5.63 13.26,-8.79 21.21,-8.79" /><path
             id="path1215"
             style="fill:none;stroke:#ff0000;stroke-width:10;stroke-linecap:butt;stroke-linejoin:round;stroke-miterlimit:10;stroke-dasharray:none;stroke-opacity:1"
             d="m 3349.58,2888.56 c 7.96,0 15.59,3.16 21.21,8.79 5.63,5.62 8.79,13.26 8.79,21.21 0,7.96 -3.16,15.59 -8.79,21.21 -5.62,5.63 -13.25,8.79 -21.21,8.79 -7.95,0 -15.59,-3.16 -21.21,-8.79 -5.63,-5.62 -8.79,-13.25 -8.79,-21.21 0,-7.95 3.16,-15.59 8.79,-21.21 5.62,-5.63 13.26,-8.79 21.21,-8.79 z" /><path
             id="path1217"
             style="fill:#ff0000;fill-opacity:1;fill-rule:nonzero;stroke:none"
             d="m 2659.87,2878.93 c 7.95,0 15.59,3.16 21.21,8.79 5.63,5.62 8.79,13.25 8.79,21.21 0,7.96 -3.16,15.59 -8.79,21.21 -5.62,5.63 -13.26,8.79 -21.21,8.79 -7.96,0 -15.59,-3.16 -21.21,-8.79 -5.63,-5.62 -8.79,-13.25 -8.79,-21.21 0,-7.96 3.16,-15.59 8.79,-21.21 5.62,-5.63 13.25,-8.79 21.21,-8.79" /><path
             id="path1219"
             style="fill:none;stroke:#ff0000;stroke-width:10;stroke-linecap:butt;stroke-linejoin:round;stroke-miterlimit:10;stroke-dasharray:none;stroke-opacity:1"
             d="m 2659.87,2878.93 c 7.95,0 15.59,3.16 21.21,8.79 5.63,5.62 8.79,13.25 8.79,21.21 0,7.96 -3.16,15.59 -8.79,21.21 -5.62,5.63 -13.26,8.79 -21.21,8.79 -7.96,0 -15.59,-3.16 -21.21,-8.79 -5.63,-5.62 -8.79,-13.25 -8.79,-21.21 0,-7.96 3.16,-15.59 8.79,-21.21 5.62,-5.63 13.25,-8.79 21.21,-8.79 z" /><path
             id="path1221"
             style="fill:#ff0000;fill-opacity:1;fill-rule:nonzero;stroke:none"
             d="m 3668.39,2888.43 c 7.96,0 15.59,3.16 21.21,8.79 5.63,5.62 8.79,13.25 8.79,21.21 0,7.96 -3.16,15.59 -8.79,21.21 -5.62,5.63 -13.25,8.79 -21.21,8.79 -7.96,0 -15.59,-3.16 -21.21,-8.79 -5.63,-5.62 -8.79,-13.25 -8.79,-21.21 0,-7.96 3.16,-15.59 8.79,-21.21 5.62,-5.63 13.25,-8.79 21.21,-8.79" /><path
             id="path1223"
             style="fill:none;stroke:#ff0000;stroke-width:10;stroke-linecap:butt;stroke-linejoin:round;stroke-miterlimit:10;stroke-dasharray:none;stroke-opacity:1"
             d="m 3668.39,2888.43 c 7.96,0 15.59,3.16 21.21,8.79 5.63,5.62 8.79,13.25 8.79,21.21 0,7.96 -3.16,15.59 -8.79,21.21 -5.62,5.63 -13.25,8.79 -21.21,8.79 -7.96,0 -15.59,-3.16 -21.21,-8.79 -5.63,-5.62 -8.79,-13.25 -8.79,-21.21 0,-7.96 3.16,-15.59 8.79,-21.21 5.62,-5.63 13.25,-8.79 21.21,-8.79 z" /><path
             id="path1225"
             style="fill:#ff0000;fill-opacity:1;fill-rule:nonzero;stroke:none"
             d="m 2659.87,2878.93 c 7.95,0 15.59,3.16 21.21,8.79 5.63,5.62 8.79,13.25 8.79,21.21 0,7.96 -3.16,15.59 -8.79,21.21 -5.62,5.63 -13.26,8.79 -21.21,8.79 -7.96,0 -15.59,-3.16 -21.21,-8.79 -5.63,-5.62 -8.79,-13.25 -8.79,-21.21 0,-7.96 3.16,-15.59 8.79,-21.21 5.62,-5.63 13.25,-8.79 21.21,-8.79" /><path
             id="path1227"
             style="fill:none;stroke:#ff0000;stroke-width:10;stroke-linecap:butt;stroke-linejoin:round;stroke-miterlimit:10;stroke-dasharray:none;stroke-opacity:1"
             d="m 2659.87,2878.93 c 7.95,0 15.59,3.16 21.21,8.79 5.63,5.62 8.79,13.25 8.79,21.21 0,7.96 -3.16,15.59 -8.79,21.21 -5.62,5.63 -13.26,8.79 -21.21,8.79 -7.96,0 -15.59,-3.16 -21.21,-8.79 -5.63,-5.62 -8.79,-13.25 -8.79,-21.21 0,-7.96 3.16,-15.59 8.79,-21.21 5.62,-5.63 13.25,-8.79 21.21,-8.79 z" /><path
             id="path1229"
             style="fill:#ff0000;fill-opacity:1;fill-rule:nonzero;stroke:none"
             d="m 3668.39,2888.43 c 7.96,0 15.59,3.16 21.21,8.79 5.63,5.62 8.79,13.25 8.79,21.21 0,7.96 -3.16,15.59 -8.79,21.21 -5.62,5.63 -13.25,8.79 -21.21,8.79 -7.96,0 -15.59,-3.16 -21.21,-8.79 -5.63,-5.62 -8.79,-13.25 -8.79,-21.21 0,-7.96 3.16,-15.59 8.79,-21.21 5.62,-5.63 13.25,-8.79 21.21,-8.79" /><path
             id="path1231"
             style="fill:none;stroke:#ff0000;stroke-width:10;stroke-linecap:butt;stroke-linejoin:round;stroke-miterlimit:10;stroke-dasharray:none;stroke-opacity:1"
             d="m 3668.39,2888.43 c 7.96,0 15.59,3.16 21.21,8.79 5.63,5.62 8.79,13.25 8.79,21.21 0,7.96 -3.16,15.59 -8.79,21.21 -5.62,5.63 -13.25,8.79 -21.21,8.79 -7.96,0 -15.59,-3.16 -21.21,-8.79 -5.63,-5.62 -8.79,-13.25 -8.79,-21.21 0,-7.96 3.16,-15.59 8.79,-21.21 5.62,-5.63 13.25,-8.79 21.21,-8.79 z" /><path
             id="path1233"
             style="fill:#ff0000;fill-opacity:1;fill-rule:nonzero;stroke:none"
             d="m 2659.87,2878.93 c 7.95,0 15.59,3.16 21.21,8.79 5.63,5.62 8.79,13.25 8.79,21.21 0,7.96 -3.16,15.59 -8.79,21.21 -5.62,5.63 -13.26,8.79 -21.21,8.79 -7.96,0 -15.59,-3.16 -21.21,-8.79 -5.63,-5.62 -8.79,-13.25 -8.79,-21.21 0,-7.96 3.16,-15.59 8.79,-21.21 5.62,-5.63 13.25,-8.79 21.21,-8.79" /><path
             id="path1235"
             style="fill:none;stroke:#ff0000;stroke-width:10;stroke-linecap:butt;stroke-linejoin:round;stroke-miterlimit:10;stroke-dasharray:none;stroke-opacity:1"
             d="m 2659.87,2878.93 c 7.95,0 15.59,3.16 21.21,8.79 5.63,5.62 8.79,13.25 8.79,21.21 0,7.96 -3.16,15.59 -8.79,21.21 -5.62,5.63 -13.26,8.79 -21.21,8.79 -7.96,0 -15.59,-3.16 -21.21,-8.79 -5.63,-5.62 -8.79,-13.25 -8.79,-21.21 0,-7.96 3.16,-15.59 8.79,-21.21 5.62,-5.63 13.25,-8.79 21.21,-8.79 z" /><path
             id="path1237"
             style="fill:#ff0000;fill-opacity:1;fill-rule:nonzero;stroke:none"
             d="m 3668.39,2888.43 c 7.96,0 15.59,3.16 21.21,8.79 5.63,5.62 8.79,13.25 8.79,21.21 0,7.96 -3.16,15.59 -8.79,21.21 -5.62,5.63 -13.25,8.79 -21.21,8.79 -7.96,0 -15.59,-3.16 -21.21,-8.79 -5.63,-5.62 -8.79,-13.25 -8.79,-21.21 0,-7.96 3.16,-15.59 8.79,-21.21 5.62,-5.63 13.25,-8.79 21.21,-8.79" /><path
             id="path1239"
             style="fill:none;stroke:#ff0000;stroke-width:10;stroke-linecap:butt;stroke-linejoin:round;stroke-miterlimit:10;stroke-dasharray:none;stroke-opacity:1"
             d="m 3668.39,2888.43 c 7.96,0 15.59,3.16 21.21,8.79 5.63,5.62 8.79,13.25 8.79,21.21 0,7.96 -3.16,15.59 -8.79,21.21 -5.62,5.63 -13.25,8.79 -21.21,8.79 -7.96,0 -15.59,-3.16 -21.21,-8.79 -5.63,-5.62 -8.79,-13.25 -8.79,-21.21 0,-7.96 3.16,-15.59 8.79,-21.21 5.62,-5.63 13.25,-8.79 21.21,-8.79 z" /><path
             id="path1241"
             style="fill:#ff0000;fill-opacity:1;fill-rule:nonzero;stroke:none"
             d="m 2659.87,2878.93 c 7.95,0 15.59,3.16 21.21,8.79 5.63,5.62 8.79,13.25 8.79,21.21 0,7.96 -3.16,15.59 -8.79,21.21 -5.62,5.63 -13.26,8.79 -21.21,8.79 -7.96,0 -15.59,-3.16 -21.21,-8.79 -5.63,-5.62 -8.79,-13.25 -8.79,-21.21 0,-7.96 3.16,-15.59 8.79,-21.21 5.62,-5.63 13.25,-8.79 21.21,-8.79" /><path
             id="path1243"
             style="fill:none;stroke:#ff0000;stroke-width:10;stroke-linecap:butt;stroke-linejoin:round;stroke-miterlimit:10;stroke-dasharray:none;stroke-opacity:1"
             d="m 2659.87,2878.93 c 7.95,0 15.59,3.16 21.21,8.79 5.63,5.62 8.79,13.25 8.79,21.21 0,7.96 -3.16,15.59 -8.79,21.21 -5.62,5.63 -13.26,8.79 -21.21,8.79 -7.96,0 -15.59,-3.16 -21.21,-8.79 -5.63,-5.62 -8.79,-13.25 -8.79,-21.21 0,-7.96 3.16,-15.59 8.79,-21.21 5.62,-5.63 13.25,-8.79 21.21,-8.79 z" /><path
             id="path1245"
             style="fill:#ff0000;fill-opacity:1;fill-rule:nonzero;stroke:none"
             d="m 3668.39,2888.43 c 7.96,0 15.59,3.16 21.21,8.79 5.63,5.62 8.79,13.25 8.79,21.21 0,7.96 -3.16,15.59 -8.79,21.21 -5.62,5.63 -13.25,8.79 -21.21,8.79 -7.96,0 -15.59,-3.16 -21.21,-8.79 -5.63,-5.62 -8.79,-13.25 -8.79,-21.21 0,-7.96 3.16,-15.59 8.79,-21.21 5.62,-5.63 13.25,-8.79 21.21,-8.79" /><path
             id="path1247"
             style="fill:none;stroke:#ff0000;stroke-width:10;stroke-linecap:butt;stroke-linejoin:round;stroke-miterlimit:10;stroke-dasharray:none;stroke-opacity:1"
             d="m 3668.39,2888.43 c 7.96,0 15.59,3.16 21.21,8.79 5.63,5.62 8.79,13.25 8.79,21.21 0,7.96 -3.16,15.59 -8.79,21.21 -5.62,5.63 -13.25,8.79 -21.21,8.79 -7.96,0 -15.59,-3.16 -21.21,-8.79 -5.63,-5.62 -8.79,-13.25 -8.79,-21.21 0,-7.96 3.16,-15.59 8.79,-21.21 5.62,-5.63 13.25,-8.79 21.21,-8.79 z" /><path
             id="path1249"
             style="fill:#ff0000;fill-opacity:1;fill-rule:nonzero;stroke:none"
             d="m 2659.87,2878.93 c 7.95,0 15.59,3.16 21.21,8.79 5.63,5.62 8.79,13.25 8.79,21.21 0,7.96 -3.16,15.59 -8.79,21.21 -5.62,5.63 -13.26,8.79 -21.21,8.79 -7.96,0 -15.59,-3.16 -21.21,-8.79 -5.63,-5.62 -8.79,-13.25 -8.79,-21.21 0,-7.96 3.16,-15.59 8.79,-21.21 5.62,-5.63 13.25,-8.79 21.21,-8.79" /><path
             id="path1251"
             style="fill:none;stroke:#ff0000;stroke-width:10;stroke-linecap:butt;stroke-linejoin:round;stroke-miterlimit:10;stroke-dasharray:none;stroke-opacity:1"
             d="m 2659.87,2878.93 c 7.95,0 15.59,3.16 21.21,8.79 5.63,5.62 8.79,13.25 8.79,21.21 0,7.96 -3.16,15.59 -8.79,21.21 -5.62,5.63 -13.26,8.79 -21.21,8.79 -7.96,0 -15.59,-3.16 -21.21,-8.79 -5.63,-5.62 -8.79,-13.25 -8.79,-21.21 0,-7.96 3.16,-15.59 8.79,-21.21 5.62,-5.63 13.25,-8.79 21.21,-8.79 z" /><path
             id="path1253"
             style="fill:#ff0000;fill-opacity:1;fill-rule:nonzero;stroke:none"
             d="m 3668.39,2888.43 c 7.96,0 15.59,3.16 21.21,8.79 5.63,5.62 8.79,13.25 8.79,21.21 0,7.96 -3.16,15.59 -8.79,21.21 -5.62,5.63 -13.25,8.79 -21.21,8.79 -7.96,0 -15.59,-3.16 -21.21,-8.79 -5.63,-5.62 -8.79,-13.25 -8.79,-21.21 0,-7.96 3.16,-15.59 8.79,-21.21 5.62,-5.63 13.25,-8.79 21.21,-8.79" /><path
             id="path1255"
             style="fill:none;stroke:#ff0000;stroke-width:10;stroke-linecap:butt;stroke-linejoin:round;stroke-miterlimit:10;stroke-dasharray:none;stroke-opacity:1"
             d="m 3668.39,2888.43 c 7.96,0 15.59,3.16 21.21,8.79 5.63,5.62 8.79,13.25 8.79,21.21 0,7.96 -3.16,15.59 -8.79,21.21 -5.62,5.63 -13.25,8.79 -21.21,8.79 -7.96,0 -15.59,-3.16 -21.21,-8.79 -5.63,-5.62 -8.79,-13.25 -8.79,-21.21 0,-7.96 3.16,-15.59 8.79,-21.21 5.62,-5.63 13.25,-8.79 21.21,-8.79 z" /><path
             id="path1257"
             style="fill:#ff0000;fill-opacity:1;fill-rule:nonzero;stroke:none"
             d="m 2659.87,2878.93 c 7.95,0 15.59,3.16 21.21,8.79 5.63,5.62 8.79,13.25 8.79,21.21 0,7.96 -3.16,15.59 -8.79,21.21 -5.62,5.63 -13.26,8.79 -21.21,8.79 -7.96,0 -15.59,-3.16 -21.21,-8.79 -5.63,-5.62 -8.79,-13.25 -8.79,-21.21 0,-7.96 3.16,-15.59 8.79,-21.21 5.62,-5.63 13.25,-8.79 21.21,-8.79" /><path
             id="path1259"
             style="fill:none;stroke:#ff0000;stroke-width:10;stroke-linecap:butt;stroke-linejoin:round;stroke-miterlimit:10;stroke-dasharray:none;stroke-opacity:1"
             d="m 2659.87,2878.93 c 7.95,0 15.59,3.16 21.21,8.79 5.63,5.62 8.79,13.25 8.79,21.21 0,7.96 -3.16,15.59 -8.79,21.21 -5.62,5.63 -13.26,8.79 -21.21,8.79 -7.96,0 -15.59,-3.16 -21.21,-8.79 -5.63,-5.62 -8.79,-13.25 -8.79,-21.21 0,-7.96 3.16,-15.59 8.79,-21.21 5.62,-5.63 13.25,-8.79 21.21,-8.79 z" /><path
             id="path1261"
             style="fill:#ff0000;fill-opacity:1;fill-rule:nonzero;stroke:none"
             d="m 3668.39,2888.43 c 7.96,0 15.59,3.16 21.21,8.79 5.63,5.62 8.79,13.25 8.79,21.21 0,7.96 -3.16,15.59 -8.79,21.21 -5.62,5.63 -13.25,8.79 -21.21,8.79 -7.96,0 -15.59,-3.16 -21.21,-8.79 -5.63,-5.62 -8.79,-13.25 -8.79,-21.21 0,-7.96 3.16,-15.59 8.79,-21.21 5.62,-5.63 13.25,-8.79 21.21,-8.79" /><path
             id="path1263"
             style="fill:none;stroke:#ff0000;stroke-width:10;stroke-linecap:butt;stroke-linejoin:round;stroke-miterlimit:10;stroke-dasharray:none;stroke-opacity:1"
             d="m 3668.39,2888.43 c 7.96,0 15.59,3.16 21.21,8.79 5.63,5.62 8.79,13.25 8.79,21.21 0,7.96 -3.16,15.59 -8.79,21.21 -5.62,5.63 -13.25,8.79 -21.21,8.79 -7.96,0 -15.59,-3.16 -21.21,-8.79 -5.63,-5.62 -8.79,-13.25 -8.79,-21.21 0,-7.96 3.16,-15.59 8.79,-21.21 5.62,-5.63 13.25,-8.79 21.21,-8.79 z" /><path
             id="path1265"
             style="fill:#ff0000;fill-opacity:1;fill-rule:nonzero;stroke:none"
             d="m 2659.87,2878.93 c 7.95,0 15.59,3.16 21.21,8.79 5.63,5.62 8.79,13.25 8.79,21.21 0,7.96 -3.16,15.59 -8.79,21.21 -5.62,5.63 -13.26,8.79 -21.21,8.79 -7.96,0 -15.59,-3.16 -21.21,-8.79 -5.63,-5.62 -8.79,-13.25 -8.79,-21.21 0,-7.96 3.16,-15.59 8.79,-21.21 5.62,-5.63 13.25,-8.79 21.21,-8.79" /><path
             id="path1267"
             style="fill:none;stroke:#ff0000;stroke-width:10;stroke-linecap:butt;stroke-linejoin:round;stroke-miterlimit:10;stroke-dasharray:none;stroke-opacity:1"
             d="m 2659.87,2878.93 c 7.95,0 15.59,3.16 21.21,8.79 5.63,5.62 8.79,13.25 8.79,21.21 0,7.96 -3.16,15.59 -8.79,21.21 -5.62,5.63 -13.26,8.79 -21.21,8.79 -7.96,0 -15.59,-3.16 -21.21,-8.79 -5.63,-5.62 -8.79,-13.25 -8.79,-21.21 0,-7.96 3.16,-15.59 8.79,-21.21 5.62,-5.63 13.25,-8.79 21.21,-8.79 z" /><path
             id="path1269"
             style="fill:#ff0000;fill-opacity:1;fill-rule:nonzero;stroke:none"
             d="m 3668.39,2888.43 c 7.96,0 15.59,3.16 21.21,8.79 5.63,5.62 8.79,13.25 8.79,21.21 0,7.96 -3.16,15.59 -8.79,21.21 -5.62,5.63 -13.25,8.79 -21.21,8.79 -7.96,0 -15.59,-3.16 -21.21,-8.79 -5.63,-5.62 -8.79,-13.25 -8.79,-21.21 0,-7.96 3.16,-15.59 8.79,-21.21 5.62,-5.63 13.25,-8.79 21.21,-8.79" /><path
             id="path1271"
             style="fill:none;stroke:#ff0000;stroke-width:10;stroke-linecap:butt;stroke-linejoin:round;stroke-miterlimit:10;stroke-dasharray:none;stroke-opacity:1"
             d="m 3668.39,2888.43 c 7.96,0 15.59,3.16 21.21,8.79 5.63,5.62 8.79,13.25 8.79,21.21 0,7.96 -3.16,15.59 -8.79,21.21 -5.62,5.63 -13.25,8.79 -21.21,8.79 -7.96,0 -15.59,-3.16 -21.21,-8.79 -5.63,-5.62 -8.79,-13.25 -8.79,-21.21 0,-7.96 3.16,-15.59 8.79,-21.21 5.62,-5.63 13.25,-8.79 21.21,-8.79 z" /><path
             id="path1273"
             style="fill:#ff0000;fill-opacity:1;fill-rule:nonzero;stroke:none"
             d="m 2659.87,2878.93 c 7.95,0 15.59,3.16 21.21,8.79 5.63,5.62 8.79,13.25 8.79,21.21 0,7.96 -3.16,15.59 -8.79,21.21 -5.62,5.63 -13.26,8.79 -21.21,8.79 -7.96,0 -15.59,-3.16 -21.21,-8.79 -5.63,-5.62 -8.79,-13.25 -8.79,-21.21 0,-7.96 3.16,-15.59 8.79,-21.21 5.62,-5.63 13.25,-8.79 21.21,-8.79" /><path
             id="path1275"
             style="fill:none;stroke:#ff0000;stroke-width:10;stroke-linecap:butt;stroke-linejoin:round;stroke-miterlimit:10;stroke-dasharray:none;stroke-opacity:1"
             d="m 2659.87,2878.93 c 7.95,0 15.59,3.16 21.21,8.79 5.63,5.62 8.79,13.25 8.79,21.21 0,7.96 -3.16,15.59 -8.79,21.21 -5.62,5.63 -13.26,8.79 -21.21,8.79 -7.96,0 -15.59,-3.16 -21.21,-8.79 -5.63,-5.62 -8.79,-13.25 -8.79,-21.21 0,-7.96 3.16,-15.59 8.79,-21.21 5.62,-5.63 13.25,-8.79 21.21,-8.79 z" /><path
             id="path1277"
             style="fill:#ff0000;fill-opacity:1;fill-rule:nonzero;stroke:none"
             d="m 3668.39,2888.43 c 7.96,0 15.59,3.16 21.21,8.79 5.63,5.62 8.79,13.25 8.79,21.21 0,7.96 -3.16,15.59 -8.79,21.21 -5.62,5.63 -13.25,8.79 -21.21,8.79 -7.96,0 -15.59,-3.16 -21.21,-8.79 -5.63,-5.62 -8.79,-13.25 -8.79,-21.21 0,-7.96 3.16,-15.59 8.79,-21.21 5.62,-5.63 13.25,-8.79 21.21,-8.79" /><path
             id="path1279"
             style="fill:none;stroke:#ff0000;stroke-width:10;stroke-linecap:butt;stroke-linejoin:round;stroke-miterlimit:10;stroke-dasharray:none;stroke-opacity:1"
             d="m 3668.39,2888.43 c 7.96,0 15.59,3.16 21.21,8.79 5.63,5.62 8.79,13.25 8.79,21.21 0,7.96 -3.16,15.59 -8.79,21.21 -5.62,5.63 -13.25,8.79 -21.21,8.79 -7.96,0 -15.59,-3.16 -21.21,-8.79 -5.63,-5.62 -8.79,-13.25 -8.79,-21.21 0,-7.96 3.16,-15.59 8.79,-21.21 5.62,-5.63 13.25,-8.79 21.21,-8.79 z" /><path
             id="path1281"
             style="fill:#ff0000;fill-opacity:1;fill-rule:nonzero;stroke:none"
             d="m 3668.09,2890.44 c 7.96,0 15.59,3.16 21.21,8.79 5.63,5.62 8.79,13.25 8.79,21.21 0,7.95 -3.16,15.59 -8.79,21.21 -5.62,5.63 -13.25,8.79 -21.21,8.79 -7.96,0 -15.59,-3.16 -21.21,-8.79 -5.63,-5.62 -8.79,-13.26 -8.79,-21.21 0,-7.96 3.16,-15.59 8.79,-21.21 5.62,-5.63 13.25,-8.79 21.21,-8.79" /><path
             id="path1283"
             style="fill:none;stroke:#ff0000;stroke-width:10;stroke-linecap:butt;stroke-linejoin:round;stroke-miterlimit:10;stroke-dasharray:none;stroke-opacity:1"
             d="m 3668.09,2890.44 c 7.96,0 15.59,3.16 21.21,8.79 5.63,5.62 8.79,13.25 8.79,21.21 0,7.95 -3.16,15.59 -8.79,21.21 -5.62,5.63 -13.25,8.79 -21.21,8.79 -7.96,0 -15.59,-3.16 -21.21,-8.79 -5.63,-5.62 -8.79,-13.26 -8.79,-21.21 0,-7.96 3.16,-15.59 8.79,-21.21 5.62,-5.63 13.25,-8.79 21.21,-8.79 z" /><path
             id="path1285"
             style="fill:#ff0000;fill-opacity:1;fill-rule:nonzero;stroke:none"
             d="m 2977.34,2843.2 c 7.96,0 15.59,3.16 21.21,8.79 5.63,5.62 8.79,13.25 8.79,21.21 0,7.96 -3.16,15.59 -8.79,21.21 -5.62,5.63 -13.25,8.79 -21.21,8.79 -7.96,0 -15.59,-3.16 -21.21,-8.79 -5.63,-5.62 -8.79,-13.25 -8.79,-21.21 0,-7.96 3.16,-15.59 8.79,-21.21 5.62,-5.63 13.25,-8.79 21.21,-8.79" /><path
             id="path1287"
             style="fill:none;stroke:#ff0000;stroke-width:10;stroke-linecap:butt;stroke-linejoin:round;stroke-miterlimit:10;stroke-dasharray:none;stroke-opacity:1"
             d="m 2977.34,2843.2 c 7.96,0 15.59,3.16 21.21,8.79 5.63,5.62 8.79,13.25 8.79,21.21 0,7.96 -3.16,15.59 -8.79,21.21 -5.62,5.63 -13.25,8.79 -21.21,8.79 -7.96,0 -15.59,-3.16 -21.21,-8.79 -5.63,-5.62 -8.79,-13.25 -8.79,-21.21 0,-7.96 3.16,-15.59 8.79,-21.21 5.62,-5.63 13.25,-8.79 21.21,-8.79 z" /><path
             id="path1289"
             style="fill:#ff0000;fill-opacity:1;fill-rule:nonzero;stroke:none"
             d="m 3986.9,2890.43 c 7.96,0 15.59,3.16 21.21,8.79 5.63,5.62 8.79,13.25 8.79,21.21 0,7.96 -3.16,15.59 -8.79,21.21 -5.62,5.63 -13.25,8.79 -21.21,8.79 -7.95,0 -15.59,-3.16 -21.21,-8.79 -5.63,-5.62 -8.79,-13.25 -8.79,-21.21 0,-7.96 3.16,-15.59 8.79,-21.21 5.62,-5.63 13.26,-8.79 21.21,-8.79" /><path
             id="path1291"
             style="fill:none;stroke:#ff0000;stroke-width:10;stroke-linecap:butt;stroke-linejoin:round;stroke-miterlimit:10;stroke-dasharray:none;stroke-opacity:1"
             d="m 3986.9,2890.43 c 7.96,0 15.59,3.16 21.21,8.79 5.63,5.62 8.79,13.25 8.79,21.21 0,7.96 -3.16,15.59 -8.79,21.21 -5.62,5.63 -13.25,8.79 -21.21,8.79 -7.95,0 -15.59,-3.16 -21.21,-8.79 -5.63,-5.62 -8.79,-13.25 -8.79,-21.21 0,-7.96 3.16,-15.59 8.79,-21.21 5.62,-5.63 13.26,-8.79 21.21,-8.79 z" /><path
             id="path1293"
             style="fill:#ff0000;fill-opacity:1;fill-rule:nonzero;stroke:none"
             d="m 2977.34,2843.2 c 7.96,0 15.59,3.16 21.21,8.79 5.63,5.62 8.79,13.25 8.79,21.21 0,7.96 -3.16,15.59 -8.79,21.21 -5.62,5.63 -13.25,8.79 -21.21,8.79 -7.96,0 -15.59,-3.16 -21.21,-8.79 -5.63,-5.62 -8.79,-13.25 -8.79,-21.21 0,-7.96 3.16,-15.59 8.79,-21.21 5.62,-5.63 13.25,-8.79 21.21,-8.79" /><path
             id="path1295"
             style="fill:none;stroke:#ff0000;stroke-width:10;stroke-linecap:butt;stroke-linejoin:round;stroke-miterlimit:10;stroke-dasharray:none;stroke-opacity:1"
             d="m 2977.34,2843.2 c 7.96,0 15.59,3.16 21.21,8.79 5.63,5.62 8.79,13.25 8.79,21.21 0,7.96 -3.16,15.59 -8.79,21.21 -5.62,5.63 -13.25,8.79 -21.21,8.79 -7.96,0 -15.59,-3.16 -21.21,-8.79 -5.63,-5.62 -8.79,-13.25 -8.79,-21.21 0,-7.96 3.16,-15.59 8.79,-21.21 5.62,-5.63 13.25,-8.79 21.21,-8.79 z" /><path
             id="path1297"
             style="fill:#ff0000;fill-opacity:1;fill-rule:nonzero;stroke:none"
             d="m 3986.9,2890.43 c 7.96,0 15.59,3.16 21.21,8.79 5.63,5.62 8.79,13.25 8.79,21.21 0,7.96 -3.16,15.59 -8.79,21.21 -5.62,5.63 -13.25,8.79 -21.21,8.79 -7.95,0 -15.59,-3.16 -21.21,-8.79 -5.63,-5.62 -8.79,-13.25 -8.79,-21.21 0,-7.96 3.16,-15.59 8.79,-21.21 5.62,-5.63 13.26,-8.79 21.21,-8.79" /><path
             id="path1299"
             style="fill:none;stroke:#ff0000;stroke-width:10;stroke-linecap:butt;stroke-linejoin:round;stroke-miterlimit:10;stroke-dasharray:none;stroke-opacity:1"
             d="m 3986.9,2890.43 c 7.96,0 15.59,3.16 21.21,8.79 5.63,5.62 8.79,13.25 8.79,21.21 0,7.96 -3.16,15.59 -8.79,21.21 -5.62,5.63 -13.25,8.79 -21.21,8.79 -7.95,0 -15.59,-3.16 -21.21,-8.79 -5.63,-5.62 -8.79,-13.25 -8.79,-21.21 0,-7.96 3.16,-15.59 8.79,-21.21 5.62,-5.63 13.26,-8.79 21.21,-8.79 z" /><path
             id="path1301"
             style="fill:#ff0000;fill-opacity:1;fill-rule:nonzero;stroke:none"
             d="m 2977.34,2843.2 c 7.96,0 15.59,3.16 21.21,8.79 5.63,5.62 8.79,13.25 8.79,21.21 0,7.96 -3.16,15.59 -8.79,21.21 -5.62,5.63 -13.25,8.79 -21.21,8.79 -7.96,0 -15.59,-3.16 -21.21,-8.79 -5.63,-5.62 -8.79,-13.25 -8.79,-21.21 0,-7.96 3.16,-15.59 8.79,-21.21 5.62,-5.63 13.25,-8.79 21.21,-8.79" /><path
             id="path1303"
             style="fill:none;stroke:#ff0000;stroke-width:10;stroke-linecap:butt;stroke-linejoin:round;stroke-miterlimit:10;stroke-dasharray:none;stroke-opacity:1"
             d="m 2977.34,2843.2 c 7.96,0 15.59,3.16 21.21,8.79 5.63,5.62 8.79,13.25 8.79,21.21 0,7.96 -3.16,15.59 -8.79,21.21 -5.62,5.63 -13.25,8.79 -21.21,8.79 -7.96,0 -15.59,-3.16 -21.21,-8.79 -5.63,-5.62 -8.79,-13.25 -8.79,-21.21 0,-7.96 3.16,-15.59 8.79,-21.21 5.62,-5.63 13.25,-8.79 21.21,-8.79 z" /><path
             id="path1305"
             style="fill:#ff0000;fill-opacity:1;fill-rule:nonzero;stroke:none"
             d="m 3986.9,2890.43 c 7.96,0 15.59,3.16 21.21,8.79 5.63,5.62 8.79,13.25 8.79,21.21 0,7.96 -3.16,15.59 -8.79,21.21 -5.62,5.63 -13.25,8.79 -21.21,8.79 -7.95,0 -15.59,-3.16 -21.21,-8.79 -5.63,-5.62 -8.79,-13.25 -8.79,-21.21 0,-7.96 3.16,-15.59 8.79,-21.21 5.62,-5.63 13.26,-8.79 21.21,-8.79" /><path
             id="path1307"
             style="fill:none;stroke:#ff0000;stroke-width:10;stroke-linecap:butt;stroke-linejoin:round;stroke-miterlimit:10;stroke-dasharray:none;stroke-opacity:1"
             d="m 3986.9,2890.43 c 7.96,0 15.59,3.16 21.21,8.79 5.63,5.62 8.79,13.25 8.79,21.21 0,7.96 -3.16,15.59 -8.79,21.21 -5.62,5.63 -13.25,8.79 -21.21,8.79 -7.95,0 -15.59,-3.16 -21.21,-8.79 -5.63,-5.62 -8.79,-13.25 -8.79,-21.21 0,-7.96 3.16,-15.59 8.79,-21.21 5.62,-5.63 13.26,-8.79 21.21,-8.79 z" /><path
             id="path1309"
             style="fill:#ff0000;fill-opacity:1;fill-rule:nonzero;stroke:none"
             d="m 2977.34,2843.2 c 7.96,0 15.59,3.16 21.21,8.79 5.63,5.62 8.79,13.25 8.79,21.21 0,7.96 -3.16,15.59 -8.79,21.21 -5.62,5.63 -13.25,8.79 -21.21,8.79 -7.96,0 -15.59,-3.16 -21.21,-8.79 -5.63,-5.62 -8.79,-13.25 -8.79,-21.21 0,-7.96 3.16,-15.59 8.79,-21.21 5.62,-5.63 13.25,-8.79 21.21,-8.79" /><path
             id="path1311"
             style="fill:none;stroke:#ff0000;stroke-width:10;stroke-linecap:butt;stroke-linejoin:round;stroke-miterlimit:10;stroke-dasharray:none;stroke-opacity:1"
             d="m 2977.34,2843.2 c 7.96,0 15.59,3.16 21.21,8.79 5.63,5.62 8.79,13.25 8.79,21.21 0,7.96 -3.16,15.59 -8.79,21.21 -5.62,5.63 -13.25,8.79 -21.21,8.79 -7.96,0 -15.59,-3.16 -21.21,-8.79 -5.63,-5.62 -8.79,-13.25 -8.79,-21.21 0,-7.96 3.16,-15.59 8.79,-21.21 5.62,-5.63 13.25,-8.79 21.21,-8.79 z" /><path
             id="path1313"
             style="fill:#ff0000;fill-opacity:1;fill-rule:nonzero;stroke:none"
             d="m 3986.9,2890.43 c 7.96,0 15.59,3.16 21.21,8.79 5.63,5.62 8.79,13.25 8.79,21.21 0,7.96 -3.16,15.59 -8.79,21.21 -5.62,5.63 -13.25,8.79 -21.21,8.79 -7.95,0 -15.59,-3.16 -21.21,-8.79 -5.63,-5.62 -8.79,-13.25 -8.79,-21.21 0,-7.96 3.16,-15.59 8.79,-21.21 5.62,-5.63 13.26,-8.79 21.21,-8.79" /><path
             id="path1315"
             style="fill:none;stroke:#ff0000;stroke-width:10;stroke-linecap:butt;stroke-linejoin:round;stroke-miterlimit:10;stroke-dasharray:none;stroke-opacity:1"
             d="m 3986.9,2890.43 c 7.96,0 15.59,3.16 21.21,8.79 5.63,5.62 8.79,13.25 8.79,21.21 0,7.96 -3.16,15.59 -8.79,21.21 -5.62,5.63 -13.25,8.79 -21.21,8.79 -7.95,0 -15.59,-3.16 -21.21,-8.79 -5.63,-5.62 -8.79,-13.25 -8.79,-21.21 0,-7.96 3.16,-15.59 8.79,-21.21 5.62,-5.63 13.26,-8.79 21.21,-8.79 z" /><path
             id="path1317"
             style="fill:#ff0000;fill-opacity:1;fill-rule:nonzero;stroke:none"
             d="m 2977.34,2843.2 c 7.96,0 15.59,3.16 21.21,8.79 5.63,5.62 8.79,13.25 8.79,21.21 0,7.96 -3.16,15.59 -8.79,21.21 -5.62,5.63 -13.25,8.79 -21.21,8.79 -7.96,0 -15.59,-3.16 -21.21,-8.79 -5.63,-5.62 -8.79,-13.25 -8.79,-21.21 0,-7.96 3.16,-15.59 8.79,-21.21 5.62,-5.63 13.25,-8.79 21.21,-8.79" /><path
             id="path1319"
             style="fill:none;stroke:#ff0000;stroke-width:10;stroke-linecap:butt;stroke-linejoin:round;stroke-miterlimit:10;stroke-dasharray:none;stroke-opacity:1"
             d="m 2977.34,2843.2 c 7.96,0 15.59,3.16 21.21,8.79 5.63,5.62 8.79,13.25 8.79,21.21 0,7.96 -3.16,15.59 -8.79,21.21 -5.62,5.63 -13.25,8.79 -21.21,8.79 -7.96,0 -15.59,-3.16 -21.21,-8.79 -5.63,-5.62 -8.79,-13.25 -8.79,-21.21 0,-7.96 3.16,-15.59 8.79,-21.21 5.62,-5.63 13.25,-8.79 21.21,-8.79 z" /><path
             id="path1321"
             style="fill:#ff0000;fill-opacity:1;fill-rule:nonzero;stroke:none"
             d="m 3986.9,2890.43 c 7.96,0 15.59,3.16 21.21,8.79 5.63,5.62 8.79,13.25 8.79,21.21 0,7.96 -3.16,15.59 -8.79,21.21 -5.62,5.63 -13.25,8.79 -21.21,8.79 -7.95,0 -15.59,-3.16 -21.21,-8.79 -5.63,-5.62 -8.79,-13.25 -8.79,-21.21 0,-7.96 3.16,-15.59 8.79,-21.21 5.62,-5.63 13.26,-8.79 21.21,-8.79" /><path
             id="path1323"
             style="fill:none;stroke:#ff0000;stroke-width:10;stroke-linecap:butt;stroke-linejoin:round;stroke-miterlimit:10;stroke-dasharray:none;stroke-opacity:1"
             d="m 3986.9,2890.43 c 7.96,0 15.59,3.16 21.21,8.79 5.63,5.62 8.79,13.25 8.79,21.21 0,7.96 -3.16,15.59 -8.79,21.21 -5.62,5.63 -13.25,8.79 -21.21,8.79 -7.95,0 -15.59,-3.16 -21.21,-8.79 -5.63,-5.62 -8.79,-13.25 -8.79,-21.21 0,-7.96 3.16,-15.59 8.79,-21.21 5.62,-5.63 13.26,-8.79 21.21,-8.79 z" /><path
             id="path1325"
             style="fill:#ff0000;fill-opacity:1;fill-rule:nonzero;stroke:none"
             d="m 2977.34,2843.2 c 7.96,0 15.59,3.16 21.21,8.79 5.63,5.62 8.79,13.25 8.79,21.21 0,7.96 -3.16,15.59 -8.79,21.21 -5.62,5.63 -13.25,8.79 -21.21,8.79 -7.96,0 -15.59,-3.16 -21.21,-8.79 -5.63,-5.62 -8.79,-13.25 -8.79,-21.21 0,-7.96 3.16,-15.59 8.79,-21.21 5.62,-5.63 13.25,-8.79 21.21,-8.79" /><path
             id="path1327"
             style="fill:none;stroke:#ff0000;stroke-width:10;stroke-linecap:butt;stroke-linejoin:round;stroke-miterlimit:10;stroke-dasharray:none;stroke-opacity:1"
             d="m 2977.34,2843.2 c 7.96,0 15.59,3.16 21.21,8.79 5.63,5.62 8.79,13.25 8.79,21.21 0,7.96 -3.16,15.59 -8.79,21.21 -5.62,5.63 -13.25,8.79 -21.21,8.79 -7.96,0 -15.59,-3.16 -21.21,-8.79 -5.63,-5.62 -8.79,-13.25 -8.79,-21.21 0,-7.96 3.16,-15.59 8.79,-21.21 5.62,-5.63 13.25,-8.79 21.21,-8.79 z" /><path
             id="path1329"
             style="fill:#ff0000;fill-opacity:1;fill-rule:nonzero;stroke:none"
             d="m 3986.9,2890.43 c 7.96,0 15.59,3.16 21.21,8.79 5.63,5.62 8.79,13.25 8.79,21.21 0,7.96 -3.16,15.59 -8.79,21.21 -5.62,5.63 -13.25,8.79 -21.21,8.79 -7.95,0 -15.59,-3.16 -21.21,-8.79 -5.63,-5.62 -8.79,-13.25 -8.79,-21.21 0,-7.96 3.16,-15.59 8.79,-21.21 5.62,-5.63 13.26,-8.79 21.21,-8.79" /><path
             id="path1331"
             style="fill:none;stroke:#ff0000;stroke-width:10;stroke-linecap:butt;stroke-linejoin:round;stroke-miterlimit:10;stroke-dasharray:none;stroke-opacity:1"
             d="m 3986.9,2890.43 c 7.96,0 15.59,3.16 21.21,8.79 5.63,5.62 8.79,13.25 8.79,21.21 0,7.96 -3.16,15.59 -8.79,21.21 -5.62,5.63 -13.25,8.79 -21.21,8.79 -7.95,0 -15.59,-3.16 -21.21,-8.79 -5.63,-5.62 -8.79,-13.25 -8.79,-21.21 0,-7.96 3.16,-15.59 8.79,-21.21 5.62,-5.63 13.26,-8.79 21.21,-8.79 z" /><path
             id="path1333"
             style="fill:#ff0000;fill-opacity:1;fill-rule:nonzero;stroke:none"
             d="m 2977.34,2843.2 c 7.96,0 15.59,3.16 21.21,8.79 5.63,5.62 8.79,13.25 8.79,21.21 0,7.96 -3.16,15.59 -8.79,21.21 -5.62,5.63 -13.25,8.79 -21.21,8.79 -7.96,0 -15.59,-3.16 -21.21,-8.79 -5.63,-5.62 -8.79,-13.25 -8.79,-21.21 0,-7.96 3.16,-15.59 8.79,-21.21 5.62,-5.63 13.25,-8.79 21.21,-8.79" /><path
             id="path1335"
             style="fill:none;stroke:#ff0000;stroke-width:10;stroke-linecap:butt;stroke-linejoin:round;stroke-miterlimit:10;stroke-dasharray:none;stroke-opacity:1"
             d="m 2977.34,2843.2 c 7.96,0 15.59,3.16 21.21,8.79 5.63,5.62 8.79,13.25 8.79,21.21 0,7.96 -3.16,15.59 -8.79,21.21 -5.62,5.63 -13.25,8.79 -21.21,8.79 -7.96,0 -15.59,-3.16 -21.21,-8.79 -5.63,-5.62 -8.79,-13.25 -8.79,-21.21 0,-7.96 3.16,-15.59 8.79,-21.21 5.62,-5.63 13.25,-8.79 21.21,-8.79 z" /><path
             id="path1337"
             style="fill:#ff0000;fill-opacity:1;fill-rule:nonzero;stroke:none"
             d="m 3986.9,2890.43 c 7.96,0 15.59,3.16 21.21,8.79 5.63,5.62 8.79,13.25 8.79,21.21 0,7.96 -3.16,15.59 -8.79,21.21 -5.62,5.63 -13.25,8.79 -21.21,8.79 -7.95,0 -15.59,-3.16 -21.21,-8.79 -5.63,-5.62 -8.79,-13.25 -8.79,-21.21 0,-7.96 3.16,-15.59 8.79,-21.21 5.62,-5.63 13.26,-8.79 21.21,-8.79" /><path
             id="path1339"
             style="fill:none;stroke:#ff0000;stroke-width:10;stroke-linecap:butt;stroke-linejoin:round;stroke-miterlimit:10;stroke-dasharray:none;stroke-opacity:1"
             d="m 3986.9,2890.43 c 7.96,0 15.59,3.16 21.21,8.79 5.63,5.62 8.79,13.25 8.79,21.21 0,7.96 -3.16,15.59 -8.79,21.21 -5.62,5.63 -13.25,8.79 -21.21,8.79 -7.95,0 -15.59,-3.16 -21.21,-8.79 -5.63,-5.62 -8.79,-13.25 -8.79,-21.21 0,-7.96 3.16,-15.59 8.79,-21.21 5.62,-5.63 13.26,-8.79 21.21,-8.79 z" /><path
             id="path1341"
             style="fill:#ff0000;fill-opacity:1;fill-rule:nonzero;stroke:none"
             d="m 2655.39,2836.06 c 7.96,0 15.59,3.16 21.21,8.79 5.63,5.62 8.79,13.26 8.79,21.21 0,7.96 -3.16,15.59 -8.79,21.21 -5.62,5.63 -13.25,8.79 -21.21,8.79 -7.96,0 -15.59,-3.16 -21.21,-8.79 -5.63,-5.62 -8.79,-13.25 -8.79,-21.21 0,-7.95 3.16,-15.59 8.79,-21.21 5.62,-5.63 13.25,-8.79 21.21,-8.79" /><path
             id="path1343"
             style="fill:none;stroke:#ff0000;stroke-width:10;stroke-linecap:butt;stroke-linejoin:round;stroke-miterlimit:10;stroke-dasharray:none;stroke-opacity:1"
             d="m 2655.39,2836.06 c 7.96,0 15.59,3.16 21.21,8.79 5.63,5.62 8.79,13.26 8.79,21.21 0,7.96 -3.16,15.59 -8.79,21.21 -5.62,5.63 -13.25,8.79 -21.21,8.79 -7.96,0 -15.59,-3.16 -21.21,-8.79 -5.63,-5.62 -8.79,-13.25 -8.79,-21.21 0,-7.95 3.16,-15.59 8.79,-21.21 5.62,-5.63 13.25,-8.79 21.21,-8.79 z" /><path
             id="path1345"
             style="fill:#ff0000;fill-opacity:1;fill-rule:nonzero;stroke:none"
             d="m 2658.98,2890.57 c 7.96,0 15.59,3.16 21.21,8.79 5.63,5.62 8.79,13.25 8.79,21.21 0,7.96 -3.16,15.59 -8.79,21.21 -5.62,5.63 -13.25,8.79 -21.21,8.79 -7.96,0 -15.59,-3.16 -21.21,-8.79 -5.63,-5.62 -8.79,-13.25 -8.79,-21.21 0,-7.96 3.16,-15.59 8.79,-21.21 5.62,-5.63 13.25,-8.79 21.21,-8.79" /><path
             id="path1347"
             style="fill:none;stroke:#ff0000;stroke-width:10;stroke-linecap:butt;stroke-linejoin:round;stroke-miterlimit:10;stroke-dasharray:none;stroke-opacity:1"
             d="m 2658.98,2890.57 c 7.96,0 15.59,3.16 21.21,8.79 5.63,5.62 8.79,13.25 8.79,21.21 0,7.96 -3.16,15.59 -8.79,21.21 -5.62,5.63 -13.25,8.79 -21.21,8.79 -7.96,0 -15.59,-3.16 -21.21,-8.79 -5.63,-5.62 -8.79,-13.25 -8.79,-21.21 0,-7.96 3.16,-15.59 8.79,-21.21 5.62,-5.63 13.25,-8.79 21.21,-8.79 z" /><path
             id="path1349"
             style="fill:#ff0000;fill-opacity:1;fill-rule:nonzero;stroke:none"
             d="m 3668.39,2888.43 c 7.96,0 15.59,3.16 21.21,8.79 5.63,5.62 8.79,13.25 8.79,21.21 0,7.96 -3.16,15.59 -8.79,21.21 -5.62,5.63 -13.25,8.79 -21.21,8.79 -7.96,0 -15.59,-3.16 -21.21,-8.79 -5.63,-5.62 -8.79,-13.25 -8.79,-21.21 0,-7.96 3.16,-15.59 8.79,-21.21 5.62,-5.63 13.25,-8.79 21.21,-8.79" /><path
             id="path1351"
             style="fill:none;stroke:#ff0000;stroke-width:10;stroke-linecap:butt;stroke-linejoin:round;stroke-miterlimit:10;stroke-dasharray:none;stroke-opacity:1"
             d="m 3668.39,2888.43 c 7.96,0 15.59,3.16 21.21,8.79 5.63,5.62 8.79,13.25 8.79,21.21 0,7.96 -3.16,15.59 -8.79,21.21 -5.62,5.63 -13.25,8.79 -21.21,8.79 -7.96,0 -15.59,-3.16 -21.21,-8.79 -5.63,-5.62 -8.79,-13.25 -8.79,-21.21 0,-7.96 3.16,-15.59 8.79,-21.21 5.62,-5.63 13.25,-8.79 21.21,-8.79 z" /><path
             id="path1353"
             style="fill:#ff0000;fill-opacity:1;fill-rule:nonzero;stroke:none"
             d="m 2659.87,2878.93 c 7.95,0 15.59,3.16 21.21,8.79 5.63,5.62 8.79,13.25 8.79,21.21 0,7.96 -3.16,15.59 -8.79,21.21 -5.62,5.63 -13.26,8.79 -21.21,8.79 -7.96,0 -15.59,-3.16 -21.21,-8.79 -5.63,-5.62 -8.79,-13.25 -8.79,-21.21 0,-7.96 3.16,-15.59 8.79,-21.21 5.62,-5.63 13.25,-8.79 21.21,-8.79" /><path
             id="path1355"
             style="fill:none;stroke:#ff0000;stroke-width:10;stroke-linecap:butt;stroke-linejoin:round;stroke-miterlimit:10;stroke-dasharray:none;stroke-opacity:1"
             d="m 2659.87,2878.93 c 7.95,0 15.59,3.16 21.21,8.79 5.63,5.62 8.79,13.25 8.79,21.21 0,7.96 -3.16,15.59 -8.79,21.21 -5.62,5.63 -13.26,8.79 -21.21,8.79 -7.96,0 -15.59,-3.16 -21.21,-8.79 -5.63,-5.62 -8.79,-13.25 -8.79,-21.21 0,-7.96 3.16,-15.59 8.79,-21.21 5.62,-5.63 13.25,-8.79 21.21,-8.79 z" /><path
             id="path1357"
             style="fill:#ff0000;fill-opacity:1;fill-rule:nonzero;stroke:none"
             d="m 3668.39,2888.43 c 7.96,0 15.59,3.16 21.21,8.79 5.63,5.62 8.79,13.25 8.79,21.21 0,7.96 -3.16,15.59 -8.79,21.21 -5.62,5.63 -13.25,8.79 -21.21,8.79 -7.96,0 -15.59,-3.16 -21.21,-8.79 -5.63,-5.62 -8.79,-13.25 -8.79,-21.21 0,-7.96 3.16,-15.59 8.79,-21.21 5.62,-5.63 13.25,-8.79 21.21,-8.79" /><path
             id="path1359"
             style="fill:none;stroke:#ff0000;stroke-width:10;stroke-linecap:butt;stroke-linejoin:round;stroke-miterlimit:10;stroke-dasharray:none;stroke-opacity:1"
             d="m 3668.39,2888.43 c 7.96,0 15.59,3.16 21.21,8.79 5.63,5.62 8.79,13.25 8.79,21.21 0,7.96 -3.16,15.59 -8.79,21.21 -5.62,5.63 -13.25,8.79 -21.21,8.79 -7.96,0 -15.59,-3.16 -21.21,-8.79 -5.63,-5.62 -8.79,-13.25 -8.79,-21.21 0,-7.96 3.16,-15.59 8.79,-21.21 5.62,-5.63 13.25,-8.79 21.21,-8.79 z" /><path
             id="path1361"
             style="fill:#ff0000;fill-opacity:1;fill-rule:nonzero;stroke:none"
             d="m 2659.87,2878.93 c 7.95,0 15.59,3.16 21.21,8.79 5.63,5.62 8.79,13.25 8.79,21.21 0,7.96 -3.16,15.59 -8.79,21.21 -5.62,5.63 -13.26,8.79 -21.21,8.79 -7.96,0 -15.59,-3.16 -21.21,-8.79 -5.63,-5.62 -8.79,-13.25 -8.79,-21.21 0,-7.96 3.16,-15.59 8.79,-21.21 5.62,-5.63 13.25,-8.79 21.21,-8.79" /><path
             id="path1363"
             style="fill:none;stroke:#ff0000;stroke-width:10;stroke-linecap:butt;stroke-linejoin:round;stroke-miterlimit:10;stroke-dasharray:none;stroke-opacity:1"
             d="m 2659.87,2878.93 c 7.95,0 15.59,3.16 21.21,8.79 5.63,5.62 8.79,13.25 8.79,21.21 0,7.96 -3.16,15.59 -8.79,21.21 -5.62,5.63 -13.26,8.79 -21.21,8.79 -7.96,0 -15.59,-3.16 -21.21,-8.79 -5.63,-5.62 -8.79,-13.25 -8.79,-21.21 0,-7.96 3.16,-15.59 8.79,-21.21 5.62,-5.63 13.25,-8.79 21.21,-8.79 z" /><path
             id="path1365"
             style="fill:#ff0000;fill-opacity:1;fill-rule:nonzero;stroke:none"
             d="m 3668.39,2888.43 c 7.96,0 15.59,3.16 21.21,8.79 5.63,5.62 8.79,13.25 8.79,21.21 0,7.96 -3.16,15.59 -8.79,21.21 -5.62,5.63 -13.25,8.79 -21.21,8.79 -7.96,0 -15.59,-3.16 -21.21,-8.79 -5.63,-5.62 -8.79,-13.25 -8.79,-21.21 0,-7.96 3.16,-15.59 8.79,-21.21 5.62,-5.63 13.25,-8.79 21.21,-8.79" /><path
             id="path1367"
             style="fill:none;stroke:#ff0000;stroke-width:10;stroke-linecap:butt;stroke-linejoin:round;stroke-miterlimit:10;stroke-dasharray:none;stroke-opacity:1"
             d="m 3668.39,2888.43 c 7.96,0 15.59,3.16 21.21,8.79 5.63,5.62 8.79,13.25 8.79,21.21 0,7.96 -3.16,15.59 -8.79,21.21 -5.62,5.63 -13.25,8.79 -21.21,8.79 -7.96,0 -15.59,-3.16 -21.21,-8.79 -5.63,-5.62 -8.79,-13.25 -8.79,-21.21 0,-7.96 3.16,-15.59 8.79,-21.21 5.62,-5.63 13.25,-8.79 21.21,-8.79 z" /><path
             id="path1369"
             style="fill:#ff0000;fill-opacity:1;fill-rule:nonzero;stroke:none"
             d="m 2655.39,2871.22 c 7.96,0 15.59,3.16 21.21,8.79 5.63,5.62 8.79,13.26 8.79,21.21 0,7.96 -3.16,15.59 -8.79,21.21 -5.62,5.63 -13.25,8.79 -21.21,8.79 -7.96,0 -15.59,-3.16 -21.21,-8.79 -5.63,-5.62 -8.79,-13.25 -8.79,-21.21 0,-7.95 3.16,-15.59 8.79,-21.21 5.62,-5.63 13.25,-8.79 21.21,-8.79" /><path
             id="path1371"
             style="fill:none;stroke:#ff0000;stroke-width:10;stroke-linecap:butt;stroke-linejoin:round;stroke-miterlimit:10;stroke-dasharray:none;stroke-opacity:1"
             d="m 2655.39,2871.22 c 7.96,0 15.59,3.16 21.21,8.79 5.63,5.62 8.79,13.26 8.79,21.21 0,7.96 -3.16,15.59 -8.79,21.21 -5.62,5.63 -13.25,8.79 -21.21,8.79 -7.96,0 -15.59,-3.16 -21.21,-8.79 -5.63,-5.62 -8.79,-13.25 -8.79,-21.21 0,-7.95 3.16,-15.59 8.79,-21.21 5.62,-5.63 13.25,-8.79 21.21,-8.79 z" /><path
             id="path1373"
             style="fill:#ff0000;fill-opacity:1;fill-rule:nonzero;stroke:none"
             d="m 2341.96,2887.05 c 7.96,0 15.59,3.16 21.21,8.79 5.63,5.62 8.79,13.25 8.79,21.21 0,7.96 -3.16,15.59 -8.79,21.21 -5.62,5.63 -13.25,8.79 -21.21,8.79 -7.96,0 -15.59,-3.16 -21.21,-8.79 -5.63,-5.62 -8.79,-13.25 -8.79,-21.21 0,-7.96 3.16,-15.59 8.79,-21.21 5.62,-5.63 13.25,-8.79 21.21,-8.79" /><path
             id="path1375"
             style="fill:none;stroke:#ff0000;stroke-width:10;stroke-linecap:butt;stroke-linejoin:round;stroke-miterlimit:10;stroke-dasharray:none;stroke-opacity:1"
             d="m 2341.96,2887.05 c 7.96,0 15.59,3.16 21.21,8.79 5.63,5.62 8.79,13.25 8.79,21.21 0,7.96 -3.16,15.59 -8.79,21.21 -5.62,5.63 -13.25,8.79 -21.21,8.79 -7.96,0 -15.59,-3.16 -21.21,-8.79 -5.63,-5.62 -8.79,-13.25 -8.79,-21.21 0,-7.96 3.16,-15.59 8.79,-21.21 5.62,-5.63 13.25,-8.79 21.21,-8.79 z" /><path
             id="path1377"
             style="fill:#ff0000;fill-opacity:1;fill-rule:nonzero;stroke:none"
             d="m 3350.18,2884.64 c 7.96,0 15.59,3.16 21.21,8.79 5.63,5.62 8.79,13.25 8.79,21.21 0,7.96 -3.16,15.59 -8.79,21.21 -5.62,5.63 -13.25,8.79 -21.21,8.79 -7.96,0 -15.59,-3.16 -21.21,-8.79 -5.63,-5.62 -8.79,-13.25 -8.79,-21.21 0,-7.96 3.16,-15.59 8.79,-21.21 5.62,-5.63 13.25,-8.79 21.21,-8.79" /><path
             id="path1379"
             style="fill:none;stroke:#ff0000;stroke-width:10;stroke-linecap:butt;stroke-linejoin:round;stroke-miterlimit:10;stroke-dasharray:none;stroke-opacity:1"
             d="m 3350.18,2884.64 c 7.96,0 15.59,3.16 21.21,8.79 5.63,5.62 8.79,13.25 8.79,21.21 0,7.96 -3.16,15.59 -8.79,21.21 -5.62,5.63 -13.25,8.79 -21.21,8.79 -7.96,0 -15.59,-3.16 -21.21,-8.79 -5.63,-5.62 -8.79,-13.25 -8.79,-21.21 0,-7.96 3.16,-15.59 8.79,-21.21 5.62,-5.63 13.25,-8.79 21.21,-8.79 z" /><path
             id="path1381"
             style="fill:#ff0000;fill-opacity:1;fill-rule:nonzero;stroke:none"
             d="m 2343.74,2878.14 c 7.96,0 15.59,3.16 21.21,8.79 5.63,5.62 8.79,13.25 8.79,21.21 0,7.96 -3.16,15.59 -8.79,21.21 -5.62,5.63 -13.25,8.79 -21.21,8.79 -7.95,0 -15.59,-3.16 -21.21,-8.79 -5.63,-5.62 -8.79,-13.25 -8.79,-21.21 0,-7.96 3.16,-15.59 8.79,-21.21 5.62,-5.63 13.26,-8.79 21.21,-8.79" /><path
             id="path1383"
             style="fill:none;stroke:#ff0000;stroke-width:10;stroke-linecap:butt;stroke-linejoin:round;stroke-miterlimit:10;stroke-dasharray:none;stroke-opacity:1"
             d="m 2343.74,2878.14 c 7.96,0 15.59,3.16 21.21,8.79 5.63,5.62 8.79,13.25 8.79,21.21 0,7.96 -3.16,15.59 -8.79,21.21 -5.62,5.63 -13.25,8.79 -21.21,8.79 -7.95,0 -15.59,-3.16 -21.21,-8.79 -5.63,-5.62 -8.79,-13.25 -8.79,-21.21 0,-7.96 3.16,-15.59 8.79,-21.21 5.62,-5.63 13.26,-8.79 21.21,-8.79 z" /><path
             id="path1385"
             style="fill:#ff0000;fill-opacity:1;fill-rule:nonzero;stroke:none"
             d="m 3350.18,2884.64 c 7.96,0 15.59,3.16 21.21,8.79 5.63,5.62 8.79,13.25 8.79,21.21 0,7.96 -3.16,15.59 -8.79,21.21 -5.62,5.63 -13.25,8.79 -21.21,8.79 -7.96,0 -15.59,-3.16 -21.21,-8.79 -5.63,-5.62 -8.79,-13.25 -8.79,-21.21 0,-7.96 3.16,-15.59 8.79,-21.21 5.62,-5.63 13.25,-8.79 21.21,-8.79" /><path
             id="path1387"
             style="fill:none;stroke:#ff0000;stroke-width:10;stroke-linecap:butt;stroke-linejoin:round;stroke-miterlimit:10;stroke-dasharray:none;stroke-opacity:1"
             d="m 3350.18,2884.64 c 7.96,0 15.59,3.16 21.21,8.79 5.63,5.62 8.79,13.25 8.79,21.21 0,7.96 -3.16,15.59 -8.79,21.21 -5.62,5.63 -13.25,8.79 -21.21,8.79 -7.96,0 -15.59,-3.16 -21.21,-8.79 -5.63,-5.62 -8.79,-13.25 -8.79,-21.21 0,-7.96 3.16,-15.59 8.79,-21.21 5.62,-5.63 13.25,-8.79 21.21,-8.79 z" /><path
             id="path1389"
             style="fill:#ff0000;fill-opacity:1;fill-rule:nonzero;stroke:none"
             d="m 2343.74,2878.14 c 7.96,0 15.59,3.16 21.21,8.79 5.63,5.62 8.79,13.25 8.79,21.21 0,7.96 -3.16,15.59 -8.79,21.21 -5.62,5.63 -13.25,8.79 -21.21,8.79 -7.95,0 -15.59,-3.16 -21.21,-8.79 -5.63,-5.62 -8.79,-13.25 -8.79,-21.21 0,-7.96 3.16,-15.59 8.79,-21.21 5.62,-5.63 13.26,-8.79 21.21,-8.79" /><path
             id="path1391"
             style="fill:none;stroke:#ff0000;stroke-width:10;stroke-linecap:butt;stroke-linejoin:round;stroke-miterlimit:10;stroke-dasharray:none;stroke-opacity:1"
             d="m 2343.74,2878.14 c 7.96,0 15.59,3.16 21.21,8.79 5.63,5.62 8.79,13.25 8.79,21.21 0,7.96 -3.16,15.59 -8.79,21.21 -5.62,5.63 -13.25,8.79 -21.21,8.79 -7.95,0 -15.59,-3.16 -21.21,-8.79 -5.63,-5.62 -8.79,-13.25 -8.79,-21.21 0,-7.96 3.16,-15.59 8.79,-21.21 5.62,-5.63 13.26,-8.79 21.21,-8.79 z" /><path
             id="path1393"
             style="fill:#ff0000;fill-opacity:1;fill-rule:nonzero;stroke:none"
             d="m 3350.18,2884.64 c 7.96,0 15.59,3.16 21.21,8.79 5.63,5.62 8.79,13.25 8.79,21.21 0,7.96 -3.16,15.59 -8.79,21.21 -5.62,5.63 -13.25,8.79 -21.21,8.79 -7.96,0 -15.59,-3.16 -21.21,-8.79 -5.63,-5.62 -8.79,-13.25 -8.79,-21.21 0,-7.96 3.16,-15.59 8.79,-21.21 5.62,-5.63 13.25,-8.79 21.21,-8.79" /><path
             id="path1395"
             style="fill:none;stroke:#ff0000;stroke-width:10;stroke-linecap:butt;stroke-linejoin:round;stroke-miterlimit:10;stroke-dasharray:none;stroke-opacity:1"
             d="m 3350.18,2884.64 c 7.96,0 15.59,3.16 21.21,8.79 5.63,5.62 8.79,13.25 8.79,21.21 0,7.96 -3.16,15.59 -8.79,21.21 -5.62,5.63 -13.25,8.79 -21.21,8.79 -7.96,0 -15.59,-3.16 -21.21,-8.79 -5.63,-5.62 -8.79,-13.25 -8.79,-21.21 0,-7.96 3.16,-15.59 8.79,-21.21 5.62,-5.63 13.25,-8.79 21.21,-8.79 z" /><path
             id="path1397"
             style="fill:#ff0000;fill-opacity:1;fill-rule:nonzero;stroke:none"
             d="m 2655.39,2875.98 c 7.96,0 15.59,3.16 21.21,8.79 5.63,5.62 8.79,13.25 8.79,21.21 0,7.96 -3.16,15.59 -8.79,21.21 -5.62,5.63 -13.25,8.79 -21.21,8.79 -7.96,0 -15.59,-3.16 -21.21,-8.79 -5.63,-5.62 -8.79,-13.25 -8.79,-21.21 0,-7.96 3.16,-15.59 8.79,-21.21 5.62,-5.63 13.25,-8.79 21.21,-8.79" /><path
             id="path1399"
             style="fill:none;stroke:#ff0000;stroke-width:10;stroke-linecap:butt;stroke-linejoin:round;stroke-miterlimit:10;stroke-dasharray:none;stroke-opacity:1"
             d="m 2655.39,2875.98 c 7.96,0 15.59,3.16 21.21,8.79 5.63,5.62 8.79,13.25 8.79,21.21 0,7.96 -3.16,15.59 -8.79,21.21 -5.62,5.63 -13.25,8.79 -21.21,8.79 -7.96,0 -15.59,-3.16 -21.21,-8.79 -5.63,-5.62 -8.79,-13.25 -8.79,-21.21 0,-7.96 3.16,-15.59 8.79,-21.21 5.62,-5.63 13.25,-8.79 21.21,-8.79 z" /><path
             id="path1401"
             style="fill:#008000;fill-opacity:1;fill-rule:nonzero;stroke:none"
             d="m 2341.06,2777.4 c 7.96,0 15.59,3.16 21.21,8.79 5.63,5.62 8.79,13.26 8.79,21.21 0,7.96 -3.16,15.59 -8.79,21.21 -5.62,5.63 -13.25,8.79 -21.21,8.79 -7.95,0 -15.59,-3.16 -21.21,-8.79 -5.63,-5.62 -8.79,-13.25 -8.79,-21.21 0,-7.95 3.16,-15.59 8.79,-21.21 5.62,-5.63 13.26,-8.79 21.21,-8.79" /><path
             id="path1403"
             style="fill:none;stroke:#008000;stroke-width:10;stroke-linecap:butt;stroke-linejoin:round;stroke-miterlimit:10;stroke-dasharray:none;stroke-opacity:1"
             d="m 2341.06,2777.4 c 7.96,0 15.59,3.16 21.21,8.79 5.63,5.62 8.79,13.26 8.79,21.21 0,7.96 -3.16,15.59 -8.79,21.21 -5.62,5.63 -13.25,8.79 -21.21,8.79 -7.95,0 -15.59,-3.16 -21.21,-8.79 -5.63,-5.62 -8.79,-13.25 -8.79,-21.21 0,-7.95 3.16,-15.59 8.79,-21.21 5.62,-5.63 13.26,-8.79 21.21,-8.79 z" /><path
             id="path1405"
             style="fill:#008000;fill-opacity:1;fill-rule:nonzero;stroke:none"
             d="m 2024.93,2586.88 c 7.96,0 15.59,3.16 21.21,8.79 5.63,5.62 8.79,13.26 8.79,21.21 0,7.96 -3.16,15.59 -8.79,21.21 -5.62,5.63 -13.25,8.79 -21.21,8.79 -7.96,0 -15.59,-3.16 -21.21,-8.79 -5.63,-5.62 -8.79,-13.25 -8.79,-21.21 0,-7.95 3.16,-15.59 8.79,-21.21 5.62,-5.63 13.25,-8.79 21.21,-8.79" /><path
             id="path1407"
             style="fill:none;stroke:#008000;stroke-width:10;stroke-linecap:butt;stroke-linejoin:round;stroke-miterlimit:10;stroke-dasharray:none;stroke-opacity:1"
             d="m 2024.93,2586.88 c 7.96,0 15.59,3.16 21.21,8.79 5.63,5.62 8.79,13.26 8.79,21.21 0,7.96 -3.16,15.59 -8.79,21.21 -5.62,5.63 -13.25,8.79 -21.21,8.79 -7.96,0 -15.59,-3.16 -21.21,-8.79 -5.63,-5.62 -8.79,-13.25 -8.79,-21.21 0,-7.95 3.16,-15.59 8.79,-21.21 5.62,-5.63 13.25,-8.79 21.21,-8.79 z" /><path
             id="path1409"
             style="fill:none;stroke:#0000ff;stroke-width:15;stroke-linecap:square;stroke-linejoin:round;stroke-miterlimit:10;stroke-dasharray:none;stroke-opacity:1"
             d="m 504.379,-8 239.949,511.121 318.812,674.819 186.49,394.74 132.32,280.08 102.63,217.24 83.86,177.5 70.9,150.07 61.42,130.01 54.17,114.67 48.46,102.57 43.84,92.79 40.02,84.71 h 2103.62" /></g></g><g
         id="g1411"><g
           clip-path="url(#clipPath1417)"
           id="g1413"><path
             id="path1419"
             style="fill:none;stroke:#000000;stroke-width:8;stroke-linecap:square;stroke-linejoin:miter;stroke-miterlimit:10;stroke-dasharray:none;stroke-opacity:1"
             d="M 582,382.16 V 3043.28" /><path
             id="path1421"
             style="fill:none;stroke:#000000;stroke-width:8;stroke-linecap:square;stroke-linejoin:miter;stroke-miterlimit:10;stroke-dasharray:none;stroke-opacity:1"
             d="M 4153.2,382.16 V 3043.28" /><path
             id="path1423"
             style="fill:none;stroke:#000000;stroke-width:8;stroke-linecap:square;stroke-linejoin:miter;stroke-miterlimit:10;stroke-dasharray:none;stroke-opacity:1"
             d="M 582,382.16 H 4153.2" /><path
             id="path1425"
             style="fill:none;stroke:#000000;stroke-width:8;stroke-linecap:square;stroke-linejoin:miter;stroke-miterlimit:10;stroke-dasharray:none;stroke-opacity:1"
             d="M 582,3043.28 H 4153.2" /></g></g></g></g></svg>
